<svg width="80" height="80" viewBox="0 0 80 80" fill="none" xmlns="http://www.w3.org/2000/svg">
<rect width="80" height="80" rx="40" fill="#AC557D"/>
<g clip-path="url(#clip0_193_2250)">
<path d="M57.5728 32.177L51.7395 26.3436C51.17 25.7741 50.2466 25.7741 49.6771 26.3436L43.8438 32.177C43.4267 32.5941 43.302 33.2213 43.5276 33.7663C43.7534 34.3112 44.2851 34.6666 44.8749 34.6666H46.3332V52.1666H43.4166V40.4998C43.4166 39.6944 42.7636 39.0415 41.9582 39.0415H36.1249C35.3195 39.0415 34.6666 39.6944 34.6666 40.4998V52.1665H31.75V46.8192C31.75 46.0138 31.0971 45.3609 30.2917 45.3609H24.4583C23.6529 45.3609 23 46.0138 23 46.8192V53.6248C23 54.4302 23.6529 55.0831 24.4583 55.0831H30.2917H36.125H41.9583H47.7917H53.625C54.4304 55.0831 55.0833 54.4302 55.0833 53.6248V34.6665H56.5417C57.1315 34.6665 57.6632 34.3111 57.889 33.7662C58.1147 33.2213 57.99 32.5941 57.5728 32.177ZM25.9167 52.1665V48.2776H28.8333V52.1665H25.9167ZM37.5833 52.1665V41.9581H40.5V52.1665H37.5833ZM49.25 52.1665V33.2081C49.25 32.5828 48.8564 32.0493 48.3035 31.8421L50.7083 29.4373L53.1132 31.8421C52.5603 32.0493 52.1667 32.5828 52.1667 33.2081V52.1665H49.25Z" fill="#F3F3F3"/>
</g>
<defs>
<clipPath id="clip0_193_2250">
<rect width="35" height="35" fill="white" transform="translate(23 23)"/>
</clipPath>
</defs>
</svg>
