<svg width="25" height="25" viewBox="0 0 25 25" fill="none" xmlns="http://www.w3.org/2000/svg">
<path d="M21.3404 17.8545L17.1061 14.0045C16.9059 13.8226 16.6429 13.7255 16.3725 13.7339C16.1022 13.7423 15.8456 13.8553 15.6571 14.0493L13.1644 16.6128C12.5644 16.4982 11.3581 16.1222 10.1165 14.8837C8.87481 13.641 8.49876 12.4316 8.38731 11.8357L10.9488 9.342C11.1429 9.15359 11.2562 8.89702 11.2646 8.62659C11.2729 8.35616 11.1757 8.09308 10.9936 7.89304L7.1446 3.65971C6.96235 3.45904 6.70905 3.33731 6.43851 3.32039C6.16796 3.30347 5.90147 3.39268 5.69564 3.56908L3.43522 5.50762C3.25513 5.68837 3.14764 5.92892 3.13314 6.18366C3.11751 6.44408 2.8196 12.6128 7.60293 17.3982C11.7758 21.5701 17.0029 21.8753 18.4425 21.8753C18.6529 21.8753 18.7821 21.8691 18.8165 21.867C19.0712 21.8527 19.3116 21.7448 19.4915 21.5639L21.429 19.3024C21.6061 19.0972 21.6959 18.831 21.6794 18.5604C21.6629 18.2899 21.5412 18.0366 21.3404 17.8545Z" fill="#2C333A"/>
</svg>
