<svg width="27" height="30" viewBox="0 0 27 30" fill="none" xmlns="http://www.w3.org/2000/svg">
<path d="M13.125 26.2495C11.7435 24.9028 10.463 23.4264 9.29688 21.8358C7.54688 19.447 5.46875 15.8895 5.46875 12.4995C5.46799 10.7682 5.91665 9.07556 6.75795 7.63579C7.59924 6.19601 8.79536 5.07383 10.1949 4.41125C11.5945 3.74868 13.1346 3.57549 14.6203 3.91362C16.106 4.25175 17.4705 5.08598 18.5412 6.31076C19.2541 7.12183 19.8191 8.08643 20.2036 9.14872C20.5881 10.211 20.7844 11.3499 20.7812 12.4995C20.7812 15.8895 18.7031 19.447 16.9531 21.8358C15.787 23.4264 14.5065 24.9028 13.125 26.2495ZM13.125 8.74951C12.2548 8.74951 11.4202 9.1446 10.8048 9.84786C10.1895 10.5511 9.84375 11.5049 9.84375 12.4995C9.84375 13.4941 10.1895 14.4479 10.8048 15.1512C11.4202 15.8544 12.2548 16.2495 13.125 16.2495C13.9952 16.2495 14.8298 15.8544 15.4452 15.1512C16.0605 14.4479 16.4062 13.4941 16.4062 12.4995C16.4062 11.5049 16.0605 10.5511 15.4452 9.84786C14.8298 9.1446 13.9952 8.74951 13.125 8.74951Z" fill="#2C333A"/>
</svg>
