<svg width="80" height="80" viewBox="0 0 80 80" fill="none" xmlns="http://www.w3.org/2000/svg">
<rect width="80" height="80" rx="40" fill="#AC557D"/>
<g clip-path="url(#clip0_193_2240)">
<path d="M55.225 25.7726C55.2159 25.7636 55.2067 25.7546 55.1974 25.7458C51.8444 22.418 46.5002 22.0746 42.7518 24.9491C42.3767 25.236 42.0744 25.4968 41.8006 25.7699C41.7927 25.7778 41.785 25.7857 41.7773 25.7937L35.7784 31.7934C35.2529 32.3188 35.2529 33.1709 35.7786 33.6962C36.3042 34.2218 37.1562 34.2217 37.6814 33.696L43.7025 27.6739C43.7088 27.6677 43.7149 27.6614 43.7212 27.6551C43.9047 27.4739 44.1168 27.2927 44.3877 27.0857C47.0802 25.021 50.9201 25.274 53.3203 27.6743C53.3282 27.6822 53.3362 27.6901 53.3443 27.6978C55.973 30.3505 55.9656 34.6485 53.3221 37.2931L47.3013 43.3146C46.7758 43.8401 46.7758 44.6921 47.3015 45.2175C47.5643 45.4801 47.9086 45.6114 48.2529 45.6114C48.5971 45.6114 48.9416 45.4801 49.2044 45.2173L55.2254 39.1958C58.9252 35.4944 58.9252 29.4727 55.225 25.7726Z" fill="#F3F3F3"/>
<path d="M43.3146 47.2985L37.297 53.3162C37.2852 53.3282 37.2733 53.3406 37.2619 53.353C36.5966 54.0075 35.816 54.51 34.9394 54.848C32.4286 55.82 29.5772 55.2194 27.6767 53.3187C25.0272 50.6663 25.0272 46.3505 27.6767 43.699L33.6972 37.6809C33.9494 37.4285 34.0913 37.0862 34.0913 36.7291V36.7268C34.0913 35.9835 33.4891 35.3823 32.7458 35.3823C32.3627 35.3823 32.017 35.5429 31.7719 35.8L25.7734 41.7962C22.0758 45.497 22.0754 51.5193 25.773 55.221C27.5842 57.0325 30.0121 57.9981 32.4849 57.9981C33.6356 57.9979 34.7964 57.7887 35.9088 57.3583C37.1506 56.8798 38.2569 56.1616 39.1966 55.2241C39.2102 55.2106 39.2235 55.1966 39.2366 55.1824L45.2176 49.2015C45.7431 48.6758 45.7431 47.824 45.2174 47.2985C44.6923 46.7732 43.8402 46.7732 43.3146 47.2985Z" fill="#F3F3F3"/>
<path d="M33.6121 47.3835C33.8749 47.6463 34.2192 47.7777 34.5637 47.7777C34.908 47.7777 35.2524 47.6463 35.5151 47.3837L47.3855 35.5138C47.9112 34.9883 47.9112 34.1363 47.3857 33.611C46.8602 33.0853 46.0082 33.0855 45.4829 33.6108L33.6124 45.4807C33.0866 46.006 33.0866 46.858 33.6121 47.3835Z" fill="#F3F3F3"/>
</g>
<defs>
<clipPath id="clip0_193_2240">
<rect width="35" height="35" fill="white" transform="translate(23 23)"/>
</clipPath>
</defs>
</svg>
