<svg width="25" height="25" viewBox="0 0 25 25" fill="none" xmlns="http://www.w3.org/2000/svg">
<path d="M19.7918 4.16699H5.2085C4.37969 4.16699 3.58484 4.49623 2.99879 5.08228C2.41274 5.66833 2.0835 6.46319 2.0835 7.29199V17.7087C2.0835 18.5375 2.41274 19.3323 2.99879 19.9184C3.58484 20.5044 4.37969 20.8337 5.2085 20.8337H19.7918C20.6206 20.8337 21.4155 20.5044 22.0015 19.9184C22.5876 19.3323 22.9168 18.5375 22.9168 17.7087V7.29199C22.9168 6.46319 22.5876 5.66833 22.0015 5.08228C21.4155 4.49623 20.6206 4.16699 19.7918 4.16699ZM19.7918 6.25033L13.021 10.9066C12.8626 10.998 12.683 11.0461 12.5002 11.0461C12.3173 11.0461 12.1377 10.998 11.9793 10.9066L5.2085 6.25033H19.7918Z" fill="#2C333A"/>
</svg>
