<svg width="25" height="25" viewBox="0 0 25 25" fill="none" xmlns="http://www.w3.org/2000/svg">
<path fill-rule="evenodd" clip-rule="evenodd" d="M7.77588 1.11074C8.99775 1.05449 9.38734 1.04199 12.4998 1.04199C15.6123 1.04199 16.0019 1.05553 17.2228 1.11074C18.4436 1.16595 19.2769 1.36074 20.0061 1.64303C20.7696 1.93158 21.4623 2.38262 22.0353 2.96595C22.6186 3.53783 23.0686 4.22949 23.3561 4.99408C23.6394 5.72324 23.8332 6.55657 23.8894 7.77532C23.9457 8.99928 23.9582 9.38887 23.9582 12.5003C23.9582 15.6128 23.9446 16.0024 23.8894 17.2243C23.8342 18.443 23.6394 19.2764 23.3561 20.0055C23.0686 20.7702 22.6178 21.463 22.0353 22.0357C21.4623 22.6191 20.7696 23.0691 20.0061 23.3566C19.2769 23.6399 18.4436 23.8337 17.2248 23.8899C16.0019 23.9462 15.6123 23.9587 12.4998 23.9587C9.38734 23.9587 8.99775 23.9451 7.77588 23.8899C6.55713 23.8347 5.7238 23.6399 4.99463 23.3566C4.22996 23.069 3.53715 22.6183 2.96442 22.0357C2.38148 21.4635 1.93037 20.771 1.64255 20.0066C1.36025 19.2774 1.1665 18.4441 1.11025 17.2253C1.054 16.0014 1.0415 15.6118 1.0415 12.5003C1.0415 9.38782 1.05505 8.99824 1.11025 7.77741C1.16546 6.55657 1.36025 5.72324 1.64255 4.99408C1.9308 4.22958 2.38225 3.53711 2.96546 2.96491C3.53738 2.3821 4.2295 1.931 4.99359 1.64303C5.72275 1.36074 6.55609 1.16699 7.77484 1.11074H7.77588ZM17.13 3.17324C15.9217 3.11803 15.5592 3.10658 12.4998 3.10658C9.44046 3.10658 9.07796 3.11803 7.86963 3.17324C6.75192 3.22428 6.14567 3.41074 5.7415 3.56803C5.20713 3.77637 4.82484 4.02324 4.4238 4.42428C4.04363 4.79413 3.75107 5.24437 3.56755 5.74199C3.41025 6.14616 3.2238 6.75241 3.17275 7.87012C3.11755 9.07845 3.10609 9.44095 3.10609 12.5003C3.10609 15.5597 3.11755 15.9222 3.17275 17.1305C3.2238 18.2482 3.41025 18.8545 3.56755 19.2587C3.75088 19.7555 4.04359 20.2066 4.4238 20.5764C4.79359 20.9566 5.24463 21.2493 5.7415 21.4326C6.14567 21.5899 6.75192 21.7764 7.86963 21.8274C9.07796 21.8826 9.43942 21.8941 12.4998 21.8941C15.5603 21.8941 15.9217 21.8826 17.13 21.8274C18.2478 21.7764 18.854 21.5899 19.2582 21.4326C19.7925 21.2243 20.1748 20.9774 20.5759 20.5764C20.9561 20.2066 21.2488 19.7555 21.4321 19.2587C21.5894 18.8545 21.7759 18.2482 21.8269 17.1305C21.8821 15.9222 21.8936 15.5597 21.8936 12.5003C21.8936 9.44095 21.8821 9.07845 21.8269 7.87012C21.7759 6.75241 21.5894 6.14616 21.4321 5.74199C21.2238 5.20762 20.9769 4.82533 20.5759 4.42428C20.206 4.04415 19.7558 3.75159 19.2582 3.56803C18.854 3.41074 18.2478 3.22428 17.13 3.17324ZM11.0363 16.0326C11.8536 16.3729 12.7638 16.4188 13.6112 16.1625C14.4587 15.9063 15.1909 15.3638 15.6828 14.6277C16.1747 13.8915 16.3957 13.0075 16.3082 12.1265C16.2207 11.2455 15.8301 10.4222 15.203 9.7972C14.8032 9.3977 14.3198 9.09179 13.7877 8.90152C13.2555 8.71124 12.6878 8.64132 12.1254 8.6968C11.5629 8.75227 11.0198 8.93176 10.535 9.22233C10.0503 9.51291 9.63603 9.90735 9.32203 10.3773C9.00803 10.8472 8.80212 11.3808 8.71912 11.9399C8.63613 12.4989 8.67812 13.0694 8.84207 13.6102C9.00601 14.1511 9.28784 14.6489 9.66725 15.0677C10.0467 15.4866 10.5142 15.8161 11.0363 16.0326ZM8.33525 8.33574C8.88215 7.78884 9.53142 7.35502 10.246 7.05903C10.9605 6.76305 11.7264 6.61071 12.4998 6.61071C13.2733 6.61071 14.0391 6.76305 14.7537 7.05903C15.4683 7.35501 16.1175 7.78884 16.6644 8.33574C17.2113 8.88264 17.6451 9.53191 17.9411 10.2465C18.2371 10.961 18.3894 11.7269 18.3894 12.5003C18.3894 13.2738 18.2371 14.0396 17.9411 14.7542C17.6451 15.4687 17.2113 16.118 16.6644 16.6649C15.5599 17.7694 14.0619 18.3899 12.4998 18.3899C10.9378 18.3899 9.43977 17.7694 8.33525 16.6649C7.23074 15.5604 6.61023 14.0623 6.61023 12.5003C6.61023 10.9383 7.23074 9.44026 8.33525 8.33574ZM19.6957 7.48782C19.8312 7.35998 19.9397 7.20624 20.0147 7.03571C20.0898 6.86519 20.1298 6.68133 20.1326 6.49504C20.1353 6.30875 20.1006 6.12381 20.0305 5.95117C19.9605 5.77853 19.8565 5.62169 19.7248 5.48995C19.5931 5.35821 19.4362 5.25424 19.2636 5.1842C19.0909 5.11416 18.906 5.07947 18.7197 5.08218C18.5334 5.0849 18.3496 5.12496 18.179 5.20001C18.0085 5.27505 17.8548 5.38355 17.7269 5.51907C17.4783 5.78265 17.3422 6.13274 17.3474 6.49504C17.3527 6.85734 17.499 7.20332 17.7552 7.45954C18.0114 7.71575 18.3574 7.86202 18.7197 7.8673C19.082 7.87258 19.4321 7.73646 19.6957 7.48782Z" fill="#333333"/>
</svg>
