<svg width="25" height="25" viewBox="0 0 25 25" fill="none" xmlns="http://www.w3.org/2000/svg">
<path d="M5.19079 7.49681C6.44954 7.49681 7.46995 6.47639 7.46995 5.21764C7.46995 3.95889 6.44954 2.93848 5.19079 2.93848C3.93204 2.93848 2.91162 3.95889 2.91162 5.21764C2.91162 6.47639 3.93204 7.49681 5.19079 7.49681Z" fill="#333333"/>
<path d="M9.62204 9.22363V21.8684H13.5481V15.6153C13.5481 13.9653 13.8585 12.3674 15.9043 12.3674C17.922 12.3674 17.947 14.2538 17.947 15.7195V21.8695H21.8752V14.9351C21.8752 11.5288 21.1418 8.91113 17.1606 8.91113C15.2491 8.91113 13.9679 9.96009 13.4439 10.9528H13.3908V9.22363H9.62204ZM3.22412 9.22363H7.15641V21.8684H3.22412V9.22363Z" fill="#333333"/>
</svg>
