<svg width="35" height="35" viewBox="0 0 35 35" fill="none" xmlns="http://www.w3.org/2000/svg">
<path d="M14.8312 27.7085C15.0491 27.7093 15.2644 27.6612 15.4612 27.5678C15.6581 27.4744 15.8315 27.3381 15.9687 27.1689L23.0125 18.4189C23.227 18.158 23.3442 17.8307 23.3442 17.4929C23.3442 17.1551 23.227 16.8278 23.0125 16.5669L15.7208 7.81687C15.4733 7.51905 15.1176 7.33176 14.732 7.29621C14.3463 7.26066 13.9624 7.37975 13.6646 7.62728C13.3668 7.87482 13.1795 8.23052 13.1439 8.61614C13.1084 9.00176 13.2275 9.38572 13.475 9.68353L19.9937 17.5002L13.6937 25.3169C13.5154 25.5309 13.4021 25.7916 13.3673 26.068C13.3325 26.3444 13.3776 26.6251 13.4972 26.8767C13.6169 27.1283 13.8061 27.3403 14.0425 27.4877C14.279 27.6352 14.5526 27.7118 14.8312 27.7085Z" fill="black"/>
</svg>
