<svg width="183" height="196" viewBox="0 0 183 196" fill="none" xmlns="http://www.w3.org/2000/svg">
<g filter="url(#filter0_d_1699_3133)">
<path d="M10 16C10 10.4772 14.4772 6 20 6H176.091V186H20C14.4772 186 10 181.523 10 176V16Z" fill="#FBFBFB"/>
</g>
<g clip-path="url(#clip0_1699_3133)">
<path d="M46.2367 149.674C46.3456 149.783 46.4544 149.892 46.5632 150.001C47.4702 151.682 48.7642 152.97 50.439 153.877C50.5479 153.986 50.6567 154.094 50.7655 154.203C50.8986 154.288 51.0255 154.373 51.1586 154.451C51.3279 155.056 51.7934 155.443 52.253 155.781C55.4636 158.164 58.6622 160.528 62.1389 162.578C70.3984 167.445 79.3472 170.148 88.7555 171.085C94.2275 171.635 99.8205 171.466 105.305 170.456C109.289 169.96 113.141 168.926 116.908 167.542C119.665 166.55 122.422 165.534 124.992 164.113C128.16 162.366 131.419 160.746 134.122 158.273C134.775 158.17 135.174 157.734 135.525 157.226C136.317 157.021 136.807 156.434 137.278 155.824C138.463 155.286 139.268 154.318 140.084 153.363C140.205 153.248 140.32 153.133 140.441 153.018C140.562 152.903 140.676 152.788 140.797 152.673C140.912 152.559 141.033 152.438 141.148 152.323C141.263 152.208 141.384 152.087 141.499 151.972C141.614 151.857 141.735 151.736 141.849 151.621C141.964 151.507 142.085 151.386 142.2 151.271C142.315 151.156 142.436 151.035 142.551 150.92C142.666 150.805 142.781 150.684 142.895 150.569C143.948 149.62 145.066 148.725 145.701 147.413C146.312 146.947 146.898 146.452 147.104 145.66C147.612 145.309 148.047 144.91 148.15 144.257C150.955 141.04 152.921 137.297 154.759 133.5C157.461 127.913 159.257 122.018 160.261 115.893C160.708 113.172 161.071 110.421 160.817 107.633C160.406 109.586 160.297 111.576 160.013 113.535C158.84 121.589 156.53 129.286 152.54 136.415C151.094 138.996 149.474 141.481 147.932 144.009C147.255 144.239 147.068 144.843 146.838 145.418C146.1 145.787 145.695 146.415 145.435 147.171C144.365 148.108 143.204 148.955 142.629 150.334C142.521 150.442 142.412 150.551 142.303 150.66C142.188 150.775 142.067 150.896 141.952 151.011C141.837 151.126 141.716 151.247 141.602 151.361C141.487 151.476 141.366 151.597 141.251 151.712C141.136 151.827 141.015 151.948 140.9 152.063C140.785 152.178 140.664 152.299 140.549 152.413C140.435 152.528 140.314 152.649 140.199 152.764C140.084 152.879 139.963 153 139.848 153.115C138.566 153.532 137.877 154.633 137.043 155.564C136.269 155.793 135.658 156.229 135.289 156.966C134.703 157.184 134.098 157.372 133.88 158.061C131.583 159.464 129.303 160.897 126.987 162.269C123.783 164.174 120.324 165.559 116.908 167.022C113.068 168.201 109.174 169.156 105.256 170.027C104.881 170.021 104.506 170.009 104.138 170.003C104.531 168.92 104.936 167.844 105.317 166.762C109.815 153.846 111.702 140.538 111.266 126.891C111.248 126.232 111.508 125.483 110.934 124.896C111.061 124.322 111.188 123.753 111.315 123.179L111.303 123.197C112.028 122.254 112.536 121.214 112.718 120.029L112.705 120.047C113.425 119.097 113.963 118.076 114.12 116.872L114.108 116.891C114.429 116.479 114.743 116.074 115.064 115.663C115.952 116.195 116.732 115.458 117.585 115.451C123.607 115.439 129.617 114.98 135.634 114.823C139.171 114.732 142.696 114.478 146.221 114.333C148.658 114.23 150.762 113.075 152.243 111.025C153.942 108.685 153.785 106.11 153.41 103.389C152.769 98.7511 152.431 94.0772 151.905 89.4214C151.385 84.8322 150.732 80.261 150.23 75.6718C149.764 71.4211 149.414 67.1584 148.742 62.9319C148.73 62.2365 148.888 61.4868 148.682 60.8519C148.174 59.2859 148.621 58.0282 149.559 56.7947C151.385 54.3882 153.18 51.9576 154.958 49.5208C156.192 47.8278 157.6 46.2195 158.52 44.3692C160.225 40.953 158.223 37.9056 157.111 34.8098C157.129 31.2303 157.141 27.6508 157.177 24.0713C157.189 23.1038 157.002 22.342 155.835 22.2936C155.702 19.7783 155.654 19.742 153.289 20.8727C150.641 22.1364 148.005 23.4243 145.368 24.7062C144.522 24.7727 143.79 24.4582 143.053 24.0834C141.039 23.0615 139.056 21.949 136.97 21.0904C133.965 19.8508 134.551 19.7722 134.382 22.6624C133.263 21.8945 133.016 22.4387 133.022 23.521C133.04 26.6773 133.016 29.8275 133.034 32.9838C133.046 35.0275 132.453 37.3977 133.294 39.0181C134.14 40.6446 136.722 40.9288 138.548 41.8055C138.602 41.8297 138.639 41.8781 138.687 41.9144C138.578 43.7646 137.496 45.2823 136.97 46.9934C136.607 48.1785 136.123 49.2608 136.438 50.6636C137.339 54.7027 139.122 58.5966 138.693 62.8835C136.831 62.6175 136.377 63.5003 136.498 65.2416C136.656 67.376 136.535 69.5346 136.529 71.6811C136.529 71.802 136.529 71.923 136.523 72.05C136.456 79.8559 136.396 87.668 136.329 95.4739C136.323 96.1693 136.287 96.8707 136.238 97.566C136.184 98.4609 135.724 98.6907 134.836 98.5879C129.436 97.9772 124.037 97.4209 118.631 96.8465C118.123 95.6795 119.23 95.7581 119.738 95.5586C121.624 94.8088 123.589 94.2344 125.464 93.4605C130.258 91.4833 131.685 88.5689 130.7 83.4838C130.186 80.8294 129.11 78.2113 130.772 75.4118C131.625 73.9788 130.065 72.2011 128.281 72.0197C126.842 71.8746 125.524 72.3462 124.176 72.703C123.97 72.0016 123.752 71.2941 123.553 70.5928C123.093 68.9844 121.376 68.1258 119.707 68.676C118.347 69.1295 117.531 70.9132 118.129 72.3462C118.371 72.9327 118.607 73.5011 118.685 74.1299C118.202 74.3234 117.73 74.5834 117.228 74.6983C114.949 75.2062 113.6 76.5546 113.062 78.8643C112.566 81.0048 111.938 83.115 111.272 85.2071C110.136 88.7745 109.567 92.5777 107.07 95.5949C101.133 95.0023 95.1889 94.4037 89.2513 93.8112C87.7276 89.9233 86.2099 86.0354 84.668 82.1596C84.2387 81.0773 84.5532 80.6238 85.702 80.4304C88.7796 79.9043 91.8271 79.2332 94.9047 78.7192C95.9507 78.5439 96.2833 78.2839 95.9991 77.1411C95.2856 74.2206 94.9531 71.1914 94.0401 68.3435C93.2903 66.0095 93.5745 64.5221 95.9024 63.5668C96.6279 63.2705 96.6703 62.7928 95.981 62.2789C94.681 61.3114 93.4052 60.3017 92.1354 59.298C91.4945 58.7901 90.9685 58.2761 90.9322 57.3087C90.6903 50.718 87.9029 45.4939 82.4006 41.7753C81.7295 40.0642 81.0704 38.347 80.3811 36.6419C78.4825 31.9498 72.43 29.6582 67.8589 31.847C64.7147 33.3526 63.1729 36.0614 62.405 39.2237C62.1631 40.2214 61.6552 40.7172 60.978 41.1163C58.8799 42.3437 57.2232 43.946 55.645 45.8264C50.8986 51.492 50.959 61.4021 55.0827 67.1705C56.5278 69.19 58.2087 70.9979 59.8655 72.8179C62.3868 75.5992 64.6543 78.6104 67.4417 81.1438C67.4598 82.3652 67.4235 83.5927 67.5082 84.808C67.8105 89.0768 68.1552 93.3456 68.4817 97.6204C68.3849 97.7111 68.2821 97.7958 68.1854 97.8865C67.7198 97.8683 67.2542 97.8381 66.7887 97.8381C62.6831 97.8321 59.0431 99.1986 56.2678 102.173C53.4804 105.154 52.3134 108.806 52.3497 113.009C52.4706 126.94 52.3799 140.877 52.3739 154.808C52.0413 154.675 51.7088 154.536 51.3702 154.403C51.2613 154.276 51.1586 154.149 51.0497 154.022C50.9348 153.907 50.8139 153.792 50.699 153.677C49.4111 152.395 48.1232 151.107 46.8353 149.826C46.7205 149.711 46.6056 149.59 46.4907 149.475C46.3758 149.36 46.2609 149.239 46.14 149.124C45.9284 148.786 45.753 148.411 45.4991 148.108C32.6141 132.817 27.5592 115.258 30.3164 95.4619C31.6587 85.7875 35.1354 76.9174 40.6317 68.8453C42.0647 66.7412 43.6005 64.7035 45.0879 62.6356C45.7046 62.1821 46.273 61.6803 46.666 60.8821C45.3479 60.7249 45.2391 61.7347 44.834 62.4058C43.2256 63.3491 42.4577 65.0421 41.4358 66.4449C33.914 76.7178 29.8387 88.3875 28.9559 101.061C28.6053 106.128 28.9136 111.273 29.8387 116.352C31.4531 125.241 34.5429 133.53 39.4526 141.107C41.3391 144.021 43.1893 147.008 45.886 149.3C46.007 149.427 46.1219 149.554 46.2367 149.674Z" fill="#E7E7E7"/>
<path d="M118.335 66.6203C118.51 66.6203 118.728 66.6626 118.619 66.3543C122.41 66.2998 124.659 64.7882 125.784 61.3417C126.244 59.9329 126.588 58.4394 126.703 56.9641C127.441 47.6949 125.083 39.0726 120.971 30.8615C120.3 29.5253 119.496 28.2192 118.54 27.0764C114.399 22.1304 112.76 21.1932 107.064 23.0858C103.436 23.4183 101.858 25.9579 101.223 29.0476C100.304 33.5038 100.437 38.0447 101.175 42.5312C102.433 50.2042 104.948 57.3632 109.785 63.591C112.143 66.6203 115.36 67.8356 118.335 66.6203Z" fill="#E7E7E7"/>
<path d="M160.714 103.086C161.815 97.699 157.105 78.5317 154.094 77.002C158.157 85.2493 159.971 94.0288 160.714 103.086Z" fill="#E7E7E7"/>
<path d="M110.928 124.884C111.502 125.47 111.236 126.22 111.26 126.879C111.696 140.526 109.815 153.84 105.31 166.75C104.93 167.838 104.524 168.908 104.131 169.99C98.8771 170.958 93.5803 170.976 88.2957 170.402C80.8223 169.597 73.6512 167.626 66.8671 164.361C61.6006 161.822 56.6607 158.756 52.3556 154.741C52.3616 140.81 52.4523 126.873 52.3314 112.942C52.2951 108.74 53.4621 105.088 56.2495 102.107C59.0248 99.132 62.6648 97.7655 66.7703 97.7715C67.2359 97.7715 67.7015 97.8017 68.1671 97.8199C68.294 97.8259 68.415 97.832 68.5419 97.8441C77.3335 99.8454 86.1251 101.853 95.0799 103.897C93.0664 100.408 91.1497 97.0822 89.239 93.7627C95.1766 94.3552 101.12 94.9539 107.058 95.5464C107.167 96.018 106.895 96.3808 106.701 96.7617C106.145 97.1306 105.849 97.705 105.54 98.2673C103.013 102.869 100.413 107.428 97.964 112.071C96.525 114.792 94.6869 117.308 93.7013 120.264C93.4473 120.452 93.3506 120.712 93.3566 121.02C90.8474 119.883 88.9185 117.912 86.7297 116.322C82.5093 113.256 78.3735 110.082 74.2014 106.956C74.1168 106.823 74.0261 106.684 73.9414 106.551C73.8991 106.587 73.8205 106.654 73.8266 106.666C73.9052 106.799 73.9898 106.932 74.0805 107.059C74.2982 107.391 74.4735 107.772 74.7456 108.057C79.2563 112.851 83.7488 117.652 88.2957 122.405C91.585 125.845 91.7301 125.785 93.4111 121.069C93.5562 120.845 93.6952 120.621 93.8404 120.397C94.1064 120.022 94.4087 119.666 94.6324 119.261C96.9301 115.131 99.2459 111.013 101.489 106.853C101.979 105.94 102.317 105.717 103.309 106.291C106.29 108.002 109.35 109.592 112.391 111.201C112.844 111.443 113.286 111.908 114.265 111.576C113.328 111.025 112.657 110.602 111.962 110.221C109.144 108.691 106.326 107.15 103.484 105.662C102.759 105.287 102.553 104.955 102.989 104.205C104.071 102.337 105.123 100.456 106.127 98.5454C106.502 97.8259 107.01 97.5175 107.783 97.5538L107.777 97.5478C107.868 97.9468 108.152 97.9771 108.485 97.9045L108.479 97.8985C108.57 98.2975 108.848 98.3399 109.186 98.2613L109.18 98.2552C110.117 99.6036 111.526 100.081 113.044 100.359L113.038 100.353C113.129 100.752 113.407 100.789 113.745 100.716L113.739 100.71C113.733 101.405 114.362 101.484 114.785 101.72C115.747 102.258 116.72 102.772 117.718 103.238C118.945 103.806 119.423 104.429 118.691 105.874C117.228 108.764 115.995 111.769 114.658 114.732C114.35 115.415 113.927 116.062 114.09 116.872L114.102 116.854C113.092 117.67 112.681 118.753 112.687 120.029L112.699 120.01C111.683 120.827 111.278 121.909 111.284 123.179L111.296 123.161C109.61 124.878 109.156 127.23 108.17 129.304C104.899 136.197 102.154 143.338 98.5929 150.098C98.478 150.212 98.3631 150.327 98.2482 150.442C94.8682 153.054 91.3976 153.109 87.8483 150.799C87.7697 150.739 87.6548 150.618 87.6246 150.636C87.4069 150.775 87.5883 150.865 87.6851 150.962C89.9525 154.064 96.6701 153.611 98.4236 150.624C98.5384 150.509 98.6594 150.388 98.7743 150.273C100.34 149.209 100.685 147.407 101.398 145.853C104.621 138.887 107.759 131.88 110.928 124.884ZM78.9781 143.912C79.0567 143.973 79.1716 144.093 79.2019 144.075C79.4195 143.936 79.2381 143.846 79.1414 143.749C78.9721 143.199 78.573 142.896 78.0409 142.733C77.9623 142.679 77.8414 142.558 77.8112 142.576C77.5996 142.709 77.7628 142.812 77.8656 142.914C78.053 143.453 78.4461 143.767 78.9781 143.912ZM74.1833 139.583C74.1047 139.528 73.9898 139.407 73.9596 139.426C73.7419 139.565 73.9233 139.655 74.02 139.752C74.1954 140.302 74.5884 140.605 75.1205 140.768C75.1991 140.822 75.32 140.943 75.3503 140.925C75.5619 140.792 75.3986 140.689 75.2958 140.587C75.1084 140.048 74.7154 139.74 74.1833 139.583ZM82.8358 147.068C82.9144 147.129 83.0293 147.25 83.0595 147.232C83.2772 147.093 83.0958 147.002 82.999 146.905C82.8297 146.355 82.4307 146.046 81.8925 145.895C81.6809 145.75 81.4693 145.605 81.2577 145.46C80.9735 144.886 80.5865 144.438 79.8246 144.305C79.9335 145.176 80.5139 145.418 81.0884 145.672C81.306 145.811 81.5177 145.956 81.7353 146.095C81.9167 146.627 82.3097 146.923 82.8358 147.068ZM71.2689 137.606C71.4805 137.751 71.6922 137.896 71.9038 138.041C72.188 138.615 72.5749 139.063 73.3368 139.202C73.228 138.331 72.6475 138.089 72.0731 137.835C71.8554 137.696 71.6438 137.551 71.4261 137.412C71.2387 136.88 70.8457 136.584 70.3196 136.433C70.241 136.372 70.1261 136.251 70.0959 136.269C69.8782 136.408 70.0596 136.499 70.1564 136.596C70.3377 137.146 70.7308 137.454 71.2689 137.606ZM65.3071 132.696C65.3857 132.756 65.5006 132.877 65.5308 132.859C65.7485 132.72 65.5671 132.629 65.4703 132.533C65.301 131.982 64.902 131.674 64.3638 131.523C64.1522 131.378 63.9406 131.233 63.729 131.088C63.4448 130.513 63.0578 130.066 62.296 129.933C62.4048 130.803 62.9853 131.045 63.5597 131.299C63.7773 131.438 63.989 131.583 64.2066 131.722C64.388 132.254 64.781 132.551 65.3071 132.696ZM60.5122 128.367C60.4336 128.312 60.3188 128.191 60.2885 128.209C60.0769 128.342 60.2462 128.439 60.3429 128.542C60.5243 129.08 60.9174 129.395 61.4555 129.546C61.5341 129.606 61.649 129.727 61.6792 129.709C61.8969 129.57 61.7155 129.479 61.6188 129.382C61.4374 128.826 61.0443 128.524 60.5122 128.367ZM87.1409 150.43C86.8265 149.644 86.4576 149.318 85.6474 149.124C85.9679 149.959 86.3186 150.285 87.1409 150.43ZM85.0246 148.677C84.6921 147.945 84.4018 147.51 83.5795 147.534C83.8697 148.211 84.2023 148.58 85.0246 148.677ZM77.3154 142.37C77.007 141.59 76.6321 141.264 75.8219 141.058C76.1484 141.893 76.493 142.231 77.3154 142.37ZM68.1368 134.824C68.4392 135.598 68.8201 135.913 69.6243 136.13C69.2978 135.296 68.9652 134.951 68.1368 134.824ZM65.9782 133.143C66.3713 133.778 66.6252 134.262 67.5987 134.207C67.1029 133.627 66.8731 133.113 65.9782 133.143ZM59.1034 127.163C58.8978 127.157 58.7406 127.248 58.8434 127.454C58.9402 127.641 59.1155 127.81 59.2969 127.925C59.442 128.016 59.6536 127.943 59.6476 127.738C59.6416 127.411 59.3876 127.26 59.1034 127.163Z" fill="#BC658D"/>
<path d="M89.2512 93.7688C91.168 97.0883 93.0786 100.408 95.0921 103.903C86.1373 101.859 77.3457 99.8575 68.5481 97.8501C68.5421 97.7473 68.5179 97.6566 68.4756 97.5659C68.1491 93.2971 67.8044 89.0283 67.5021 84.7535C67.4175 83.5381 67.4537 82.3107 67.4356 81.0893C68.6812 77.4554 69.0802 73.622 70.0416 69.9215C70.2835 68.9843 70.0537 68.6155 69.2133 68.2225C67.0244 67.2067 65.6035 65.5197 65.1803 63.083C64.7993 60.8639 66.057 58.6872 68.1612 57.9495C70.1746 57.2421 72.3272 58.1974 73.3853 60.2895C73.4881 60.4951 73.5486 60.7248 73.6574 60.9304C74.1169 61.8193 75.0783 62.1034 75.8523 62.0793C76.6564 62.049 76.2937 61.0332 76.3481 60.489C76.5899 58.1128 76.5476 55.7002 76.9225 53.3542C77.3881 50.4277 76.8499 48.2752 73.6634 47.4589C73.47 47.4105 73.3128 47.1989 73.0044 46.9571C76.2211 45.1673 79.3108 43.4501 82.4006 41.7329C87.9029 45.4515 90.6903 50.6756 90.9321 57.2663C90.9684 58.2337 91.4884 58.7477 92.1354 59.2556C93.4112 60.2593 94.681 61.269 95.9809 62.2365C96.6702 62.7504 96.6279 63.2281 95.9023 63.5244C93.5684 64.4797 93.2842 65.9671 94.04 68.3011C94.953 71.1489 95.2856 74.1782 95.9991 77.0987C96.2772 78.2354 95.9507 78.5014 94.9047 78.6768C91.827 79.1907 88.7736 79.8619 85.702 80.3879C84.5531 80.5875 84.2387 81.0349 84.668 82.1172C86.2099 85.993 87.7215 89.8869 89.2512 93.7688Z" fill="#FDB87E"/>
<path d="M118.637 96.8103C124.036 97.3847 129.442 97.941 134.842 98.5517C135.73 98.6545 136.19 98.4247 136.244 97.5298C136.287 96.8345 136.329 96.1331 136.335 95.4378C136.402 87.6318 136.468 79.8197 136.528 72.0138C140.168 72.0138 143.814 72.0138 147.454 72.0138C147.454 71.8928 147.454 71.7719 147.454 71.651C143.814 71.651 140.174 71.651 136.535 71.651C136.535 69.5045 136.655 67.3459 136.504 65.2115C136.377 63.4701 136.831 62.5934 138.699 62.8534C142.049 62.8776 145.399 62.9017 148.748 62.9199C149.42 67.1463 149.77 71.4091 150.236 75.6598C150.738 80.249 151.391 84.8262 151.911 89.4094C152.443 94.0652 152.775 98.7391 153.416 103.377C153.791 106.098 153.948 108.673 152.249 111.013C150.768 113.057 148.664 114.218 146.227 114.321C142.696 114.466 139.171 114.72 135.64 114.811C129.623 114.968 123.613 115.427 117.591 115.439C116.732 115.439 115.952 116.183 115.07 115.651C116.188 113.051 117.27 110.439 118.437 107.863C120.149 104.084 120.173 104.102 116.732 102.028C116.636 101.968 116.563 101.871 116.484 101.793C117.162 100.118 117.27 98.1889 118.637 96.8103Z" fill="#C66A98"/>
<path d="M82.4007 41.727C79.3109 43.4442 76.2212 45.1614 73.0045 46.9511C73.3189 47.193 73.4701 47.4046 73.6636 47.453C76.85 48.2693 77.3882 50.4218 76.9226 53.3483C76.5477 55.6943 76.59 58.1129 76.3482 60.4831C76.2938 61.0273 76.6505 62.0492 75.8524 62.0734C75.0784 62.1036 74.117 61.8134 73.6575 60.9245C73.5487 60.7189 73.4943 60.4892 73.3854 60.2836C72.3212 58.1915 70.1747 57.2301 68.1613 57.9436C66.0571 58.6813 64.7994 60.858 65.1804 63.0771C65.6036 65.5138 67.0245 67.2008 69.2134 68.2166C70.0538 68.6096 70.2836 68.9784 70.0417 69.9156C69.0803 73.6161 68.6813 77.4495 67.4357 81.0834C64.6483 78.55 62.3809 75.5388 59.8595 72.7575C58.2088 70.9375 56.5218 69.1296 55.0767 67.1101C50.9591 61.3417 50.8926 51.4316 55.6391 45.766C57.2172 43.8856 58.8739 42.2772 60.972 41.0558C61.6492 40.6568 62.1571 40.161 62.399 39.1633C63.1669 36.001 64.7087 33.2922 67.8529 31.7866C72.424 29.5978 78.4765 31.8894 80.3751 36.5815C81.0705 38.2987 81.7295 40.0159 82.4007 41.727Z" fill="#3C4750"/>
<path d="M118.637 96.8102C117.27 98.1888 117.162 100.118 116.472 101.793C115.565 101.436 114.658 101.079 113.751 100.722L113.758 100.728C113.649 100.36 113.371 100.323 113.05 100.366L113.056 100.372C111.919 99.386 110.595 98.7512 109.192 98.2674L109.198 98.2735C109.084 97.9228 108.818 97.8623 108.491 97.9107L108.497 97.9167C108.394 97.5358 108.104 97.5237 107.79 97.56L107.796 97.566C107.626 97.04 107.094 97.0037 106.713 96.774C106.901 96.387 107.179 96.0302 107.07 95.5586C109.567 92.5414 110.142 88.7382 111.272 85.1708C111.938 83.0787 112.566 80.9625 113.062 78.8281C113.594 76.5183 114.949 75.176 117.228 74.662C117.73 74.5472 118.202 74.2872 118.685 74.0937C120.62 74.0272 122.38 73.2653 124.182 72.6667C125.53 72.316 126.848 71.8444 128.287 71.9835C130.071 72.1588 131.631 73.9425 130.778 75.3755C129.116 78.175 130.192 80.7932 130.706 83.4476C131.697 88.5326 130.264 91.447 125.469 93.4242C123.589 94.1982 121.63 94.7726 119.743 95.5223C119.23 95.7219 118.129 95.6433 118.637 96.8102Z" fill="#FDB87E"/>
<path d="M148.73 62.9197C145.381 62.8956 142.031 62.8714 138.681 62.8532C139.116 58.5663 137.333 54.6724 136.426 50.6333C136.111 49.2306 136.595 48.1482 136.958 46.9631C137.484 45.258 138.566 43.7343 138.675 41.8841C139.648 41.5213 139.618 40.6204 139.781 39.8283C140.374 39.2358 140.519 38.4255 140.791 37.6818C140.973 37.5911 141.263 37.579 141.075 37.2525L141.051 37.2828C141.372 37.3553 141.577 37.3069 141.432 36.9079L141.408 36.926C142.128 37.0469 142.847 37.1618 143.561 37.2828L143.542 37.2586C143.536 39.4051 142.889 41.4609 142.629 43.5771C142.17 45.385 141.783 47.199 142.037 49.1338C142.412 47.3803 142.787 45.6269 143.161 43.8734C144.534 44.6715 145.755 44.4357 147.17 43.7162C149.54 42.519 151.862 41.1827 154.426 40.4027C154.426 41.5334 154.426 42.6581 154.426 43.7888C154.577 43.7827 154.728 43.7767 154.88 43.7706C155.17 42.5553 155.019 41.3097 154.97 40.0762C156.851 39.4837 157.238 38.099 157.008 36.3395C156.941 35.8377 157.062 35.3177 157.099 34.8037C158.205 37.9055 160.206 40.953 158.507 44.3692C157.582 46.2194 156.173 47.8338 154.946 49.5208C153.168 51.9636 151.373 54.3882 149.547 56.7947C148.609 58.0282 148.168 59.2858 148.67 60.8519C148.875 61.4746 148.724 62.2244 148.73 62.9197Z" fill="#FDB87E"/>
<path d="M107.076 23.0858C112.766 21.1932 114.411 22.1304 118.552 27.0764C119.508 28.2192 120.318 29.5253 120.983 30.8615C125.095 39.0726 127.453 47.6888 126.715 56.9641C126.6 58.4394 126.256 59.9329 125.796 61.3417C124.665 64.7943 122.422 66.2998 118.631 66.3543L118.667 66.3905C120.258 64.6733 121.116 62.6357 121.527 60.3441C122.35 55.7306 122.023 51.1595 121.104 46.6186C119.635 39.3447 117.228 32.4518 112.282 26.7197C110.898 25.1113 109.259 23.7993 107.058 23.4425C107.094 23.4123 107.167 23.37 107.167 23.3458C107.149 23.2551 107.106 23.1704 107.076 23.0858Z" fill="#3C4750"/>
<path d="M145.362 24.682C148.005 23.4062 150.635 22.1123 153.283 20.8486C155.648 19.7239 155.696 19.7602 155.829 22.2695C155.811 26.8043 155.787 31.3331 155.781 35.868C155.781 36.648 155.781 37.3131 154.886 37.7243C151.663 39.1875 148.476 40.7173 145.272 42.2168C145.205 37.295 145.441 32.3671 145.145 27.4392C145.211 26.5262 145.29 25.6011 145.362 24.682Z" fill="#00838F"/>
<path d="M145.362 24.682C145.29 25.6011 145.217 26.5262 145.145 27.4453C144.842 27.9895 144.957 28.576 144.957 29.1504C144.951 33.4978 144.957 37.8452 144.957 42.1926C143.627 42.114 143.373 41.3703 143.639 40.1973C143.863 39.2238 144.347 38.208 143.548 37.2526L143.567 37.2768C142.968 36.4182 142.248 36.3215 141.414 36.9201L141.438 36.9019C141.202 36.9201 141.081 37.0471 141.057 37.2768L141.081 37.2466C140.84 37.295 140.761 37.4522 140.797 37.6759C140.525 38.4196 140.386 39.2298 139.787 39.8224C138.421 39.1875 137.085 38.4861 135.688 37.9419C134.66 37.5429 134.328 36.9624 134.346 35.862C134.412 31.4541 134.376 27.0402 134.382 22.6262C134.551 19.736 133.959 19.8146 136.97 21.0542C139.056 21.9128 141.039 23.0253 143.053 24.0472C143.784 24.4341 144.516 24.7486 145.362 24.682Z" fill="#FDFDFD"/>
<path d="M107.076 23.0857C107.106 23.1703 107.149 23.255 107.167 23.3457C107.173 23.3699 107.1 23.4122 107.064 23.4424C104.422 25.5829 103.823 28.6363 103.605 31.7321C102.946 41.0437 105.159 49.7566 109.555 57.9194C111.563 61.644 113.981 65.0784 118.329 66.463L118.347 66.6142C115.372 67.8295 112.155 66.6202 109.803 63.5909C104.96 57.3631 102.451 50.198 101.193 42.5311C100.455 38.0446 100.322 33.5037 101.241 29.0475C101.87 25.9578 103.442 23.4182 107.076 23.0857Z" fill="#00838F"/>
<path d="M45.8921 149.3C43.1954 147.002 41.3452 144.015 39.4587 141.101C34.549 133.524 31.4592 125.235 29.8448 116.346C28.9197 111.267 28.6114 106.122 28.9621 101.055C29.8388 88.3815 33.9202 76.7118 41.4359 66.3784C42.4578 64.9756 43.2317 63.2826 44.834 62.3394C44.9187 62.418 45.0033 62.4905 45.088 62.5691C43.6005 64.637 42.0647 66.6747 40.6317 68.7788C35.1355 76.8509 31.6588 85.7271 30.3165 95.3954C27.5653 115.185 32.6141 132.744 45.4991 148.042C45.7531 148.344 45.9284 148.719 46.1401 149.058C46.0494 149.136 45.9708 149.215 45.8921 149.3Z" fill="#4F6D78"/>
<path d="M143.549 37.2527C144.341 38.208 143.857 39.2238 143.639 40.1973C143.373 41.3703 143.633 42.114 144.957 42.1926L145.108 42.2712L145.272 42.2168C148.476 40.7112 151.663 39.1815 154.886 37.7243C155.787 37.3192 155.78 36.648 155.78 35.868C155.787 31.3332 155.811 26.8044 155.829 22.2695C156.996 22.3179 157.177 23.0798 157.171 24.0472C157.135 27.6267 157.129 31.2062 157.105 34.7857C157.068 35.2997 156.947 35.8197 157.014 36.3215C157.25 38.0871 156.857 39.4657 154.976 40.0582C154.795 40.1671 154.614 40.2759 154.432 40.3908C151.868 41.1708 149.541 42.507 147.176 43.7042C145.762 44.4177 144.54 44.6596 143.168 43.8614C143.065 43.6256 142.871 43.5591 142.635 43.5652C142.895 41.455 143.542 39.3992 143.549 37.2527Z" fill="#3C4750"/>
<path d="M134.376 22.6383C134.376 27.0522 134.406 31.4601 134.34 35.874C134.321 36.9684 134.654 37.5549 135.682 37.954C137.085 38.4921 138.421 39.1995 139.781 39.8344C139.618 40.6265 139.642 41.5274 138.675 41.8902C138.627 41.8539 138.59 41.8116 138.536 41.7814C136.716 40.9046 134.134 40.6204 133.281 38.9939C132.435 37.3795 133.028 35.0033 133.021 32.9596C133.009 29.8033 133.034 26.6531 133.009 23.4969C133.009 22.4206 133.257 21.8704 134.376 22.6383Z" fill="#3C4750"/>
<path d="M124.182 72.6667C122.38 73.2653 120.626 74.0271 118.685 74.0936C118.607 73.4648 118.371 72.8964 118.129 72.3099C117.536 70.8769 118.347 69.0932 119.707 68.6397C121.376 68.0895 123.093 68.942 123.553 70.5564C123.758 71.2578 123.97 71.9592 124.182 72.6667Z" fill="#3C4750"/>
<path d="M147.932 144.003C149.474 141.476 151.094 138.99 152.54 136.409C156.53 129.28 158.84 121.583 160.013 113.529C160.297 111.57 160.406 109.58 160.817 107.627C161.071 110.415 160.702 113.166 160.261 115.887C159.263 122.012 157.461 127.907 154.759 133.494C152.92 137.297 150.961 141.04 148.15 144.251C148.077 144.172 148.005 144.088 147.932 144.003Z" fill="#4F6D78"/>
<path d="M98.605 150.104C102.166 143.344 104.905 136.203 108.183 129.31C109.168 127.242 109.622 124.884 111.309 123.167C111.182 123.741 111.055 124.31 110.928 124.884C107.759 131.88 104.621 138.882 101.411 145.859C100.697 147.413 100.352 149.221 98.7864 150.279C98.7259 150.219 98.6654 150.164 98.605 150.104Z" fill="#266467"/>
<path d="M160.714 103.086C159.965 94.0288 158.157 85.2493 154.094 77.002C157.111 78.5317 161.815 97.699 160.714 103.086Z" fill="#4F6D78"/>
<path d="M113.745 100.722C114.652 101.079 115.559 101.436 116.466 101.792C116.551 101.871 116.617 101.974 116.714 102.028C120.155 104.096 120.13 104.084 118.419 107.863C117.252 110.439 116.17 113.057 115.051 115.651C114.731 116.062 114.41 116.467 114.096 116.878C113.933 116.074 114.356 115.421 114.664 114.738C115.995 111.781 117.228 108.77 118.697 105.88C119.429 104.435 118.951 103.812 117.724 103.244C116.726 102.778 115.753 102.264 114.791 101.726C114.368 101.496 113.745 101.418 113.745 100.722Z" fill="#266467"/>
<path d="M136.529 71.6509C140.168 71.6509 143.808 71.6509 147.448 71.6509C147.448 71.7718 147.448 71.8927 147.448 72.0137C143.808 72.0137 140.162 72.0137 136.522 72.0137C136.522 71.8927 136.522 71.7718 136.529 71.6509Z" fill="#254A59"/>
<path d="M112.699 120.029C112.687 118.759 113.105 117.677 114.114 116.854C113.957 118.057 113.419 119.085 112.699 120.029Z" fill="#266467"/>
<path d="M111.297 123.185C111.285 121.915 111.69 120.827 112.712 120.017C112.53 121.202 112.016 122.242 111.297 123.185Z" fill="#266467"/>
<path d="M44.8279 62.3452C45.233 61.668 45.3418 60.6583 46.66 60.8215C46.2669 61.6197 45.7046 62.1215 45.0818 62.575C44.9972 62.4964 44.9125 62.4238 44.8279 62.3452Z" fill="#4F6D78"/>
<path d="M68.4757 97.5659C68.518 97.6566 68.5422 97.7534 68.5482 97.8501C68.4212 97.8441 68.3003 97.838 68.1733 97.8259C68.2761 97.7413 68.3789 97.6506 68.4757 97.5659Z" fill="#B7BFC3"/>
<path d="M118.335 66.6203L118.317 66.4691C118.432 66.4449 118.546 66.4147 118.655 66.3905L118.619 66.3542C118.728 66.6566 118.51 66.6142 118.335 66.6203Z" fill="#3C4750"/>
<path d="M106.713 96.7739C107.1 97.0037 107.626 97.04 107.796 97.566C107.022 97.5297 106.514 97.8441 106.139 98.5576C105.135 100.468 104.083 102.355 103.001 104.217C102.566 104.967 102.771 105.299 103.497 105.674C106.345 107.156 109.156 108.698 111.974 110.233C112.669 110.608 113.34 111.031 114.278 111.588C113.298 111.92 112.857 111.455 112.403 111.213C109.362 109.605 106.308 108.014 103.321 106.303C102.33 105.735 101.997 105.952 101.501 106.865C99.2582 111.025 96.9484 115.143 94.6447 119.273C94.421 119.672 94.1187 120.029 93.8526 120.41C93.7861 120.385 93.7378 120.337 93.7075 120.277C94.6931 117.32 96.5312 114.804 97.9703 112.084C100.419 107.44 103.019 102.881 105.546 98.2795C105.861 97.7111 106.157 97.1428 106.713 96.7739Z" fill="#266467"/>
<path d="M109.187 98.2673C110.595 98.751 111.92 99.3859 113.05 100.371C111.533 100.099 110.124 99.6157 109.187 98.2673Z" fill="#266467"/>
<path d="M59.1036 127.163C59.3878 127.26 59.6418 127.411 59.6478 127.738C59.6539 127.943 59.4483 128.016 59.2971 127.925C59.1157 127.81 58.9404 127.641 58.8436 127.454C58.7408 127.248 58.898 127.157 59.1036 127.163Z" fill="#266467"/>
<path d="M60.5123 128.367C61.0444 128.524 61.4435 128.832 61.6128 129.383C61.5584 129.437 61.5039 129.491 61.4556 129.546C60.9174 129.395 60.5305 129.08 60.343 128.542C60.3974 128.482 60.4519 128.421 60.5123 128.367Z" fill="#266467"/>
<path d="M107.79 97.5599C108.104 97.5236 108.394 97.5357 108.497 97.9167C108.164 97.9892 107.88 97.959 107.79 97.5599Z" fill="#266467"/>
<path d="M108.491 97.9108C108.811 97.8624 109.077 97.9229 109.198 98.2736C108.86 98.3522 108.582 98.3099 108.491 97.9108Z" fill="#266467"/>
<path d="M113.044 100.366C113.364 100.317 113.643 100.353 113.751 100.728C113.419 100.801 113.141 100.765 113.044 100.366Z" fill="#266467"/>
<path d="M74.0988 107.071C74.0141 106.944 73.9234 106.811 73.8448 106.678C73.8388 106.666 73.9174 106.606 73.9597 106.563C74.0443 106.696 74.129 106.835 74.2197 106.968L74.0988 107.071Z" fill="#3C4750"/>
<path d="M93.8587 120.41C93.7136 120.633 93.5685 120.857 93.4294 121.081L93.375 121.032C93.3629 120.724 93.4597 120.464 93.7136 120.271C93.7439 120.337 93.7922 120.385 93.8587 120.41Z" fill="#3C4750"/>
<path d="M60.337 128.536C60.2402 128.439 60.0709 128.343 60.2826 128.203C60.3128 128.185 60.4277 128.306 60.5063 128.361C60.4519 128.421 60.3975 128.482 60.337 128.536Z" fill="#266467"/>
<path d="M142.636 43.565C142.871 43.5529 143.065 43.6255 143.168 43.8613C142.793 45.6147 142.418 47.3682 142.043 49.1217C141.789 47.1929 142.17 45.3729 142.636 43.565Z" fill="#4F6D78"/>
<path d="M154.432 40.3907C154.614 40.2818 154.795 40.173 154.976 40.0581C155.025 41.2916 155.17 42.5372 154.886 43.7525C154.734 43.7585 154.583 43.7646 154.432 43.7706C154.432 42.646 154.432 41.5214 154.432 40.3907Z" fill="#4F6D78"/>
<path d="M141.414 36.9199C142.248 36.3213 142.974 36.4181 143.567 37.2767C142.853 37.1557 142.134 37.0408 141.414 36.9199Z" fill="#3C4750"/>
<path d="M140.797 37.6817C140.767 37.452 140.84 37.2948 141.081 37.2524C141.263 37.579 140.979 37.5971 140.797 37.6817Z" fill="#3C4750"/>
<path d="M141.063 37.2767C141.082 37.0409 141.209 36.92 141.444 36.9019C141.583 37.3009 141.384 37.3493 141.063 37.2767Z" fill="#3C4750"/>
<path d="M118.661 66.3905C118.546 66.4146 118.431 66.4388 118.322 66.4691C113.975 65.0784 111.563 61.65 109.549 57.9254C105.147 49.7627 102.94 41.0497 103.599 31.7382C103.817 28.6424 104.416 25.5889 107.058 23.4485C109.259 23.8052 110.891 25.1173 112.282 26.7257C117.228 32.4577 119.635 39.3507 121.104 46.6246C122.023 51.1655 122.343 55.7366 121.527 60.35C121.11 62.6356 120.251 64.6733 118.661 66.3905Z" fill="#FDFDFD"/>
<path d="M145.266 42.2227L145.102 42.2771L144.951 42.1985C144.951 37.8511 144.945 33.5037 144.951 29.1563C144.951 28.5819 144.836 27.9954 145.139 27.4512C145.435 32.3669 145.199 37.2948 145.266 42.2227Z" fill="#B7BFC3"/>
<path d="M93.4294 121.081C91.7485 125.797 91.6034 125.857 88.3141 122.417C83.7672 117.664 79.2686 112.858 74.764 108.069C74.4919 107.785 74.3165 107.404 74.0989 107.071L74.2198 106.968C78.3919 110.094 82.5276 113.275 86.7481 116.334C88.9369 117.924 90.8657 119.896 93.375 121.038L93.4294 121.081Z" fill="#3C4750"/>
</g>
<defs>
<filter id="filter0_d_1699_3133" x="0" y="0" width="182.091" height="196" filterUnits="userSpaceOnUse" color-interpolation-filters="sRGB">
<feFlood flood-opacity="0" result="BackgroundImageFix"/>
<feColorMatrix in="SourceAlpha" type="matrix" values="0 0 0 0 0 0 0 0 0 0 0 0 0 0 0 0 0 0 127 0" result="hardAlpha"/>
<feOffset dx="-2" dy="2"/>
<feGaussianBlur stdDeviation="4"/>
<feComposite in2="hardAlpha" operator="out"/>
<feColorMatrix type="matrix" values="0 0 0 0 0 0 0 0 0 0 0 0 0 0 0 0 0 0 0.16 0"/>
<feBlend mode="normal" in2="BackgroundImageFix" result="effect1_dropShadow_1699_3133"/>
<feBlend mode="normal" in="SourceGraphic" in2="effect1_dropShadow_1699_3133" result="shape"/>
</filter>
<clipPath id="clip0_1699_3133">
<rect width="139.552" height="155.455" fill="white" transform="translate(23.0908 18.2727)"/>
</clipPath>
</defs>
</svg>
