<svg width="183" height="196" viewBox="0 0 183 196" fill="none" xmlns="http://www.w3.org/2000/svg">
<g filter="url(#filter0_d_1699_3132)">
<path d="M10 16C10 10.4772 14.4772 6 20 6H176.091V186H20C14.4772 186 10 181.523 10 176V16Z" fill="#FBFBFB"/>
</g>
<g clip-path="url(#clip0_1699_3132)">
<path d="M119.437 151.452C119.528 151.361 119.619 151.271 119.703 151.18C120.338 150.944 120.773 150.503 120.937 149.741C120.465 150.158 119.993 150.575 119.522 150.999C119.419 151.089 119.31 151.18 119.207 151.271C119.159 151.374 119.044 151.543 119.074 151.573C119.25 151.754 119.346 151.603 119.437 151.452Z" fill="#E7E7E7"/>
<path d="M123.011 77.9875C123.095 78.0721 123.18 78.1568 123.265 78.2414C123.652 79.1847 124.365 79.8377 125.193 80.3819C125.326 80.8656 125.647 81.2223 125.955 81.6033C129.783 86.3256 132.697 91.5497 134.529 97.3604C130.393 97.3664 126.264 97.3785 122.128 97.3845C120.284 97.3845 118.573 97.7594 117.176 99.0775C116.517 98.9748 116.124 98.4366 115.616 98.098C112.738 96.1873 109.442 95.4739 106.153 94.7604C104.176 94.3311 102.277 93.5329 100.222 93.4846C99.7801 92.1906 100.228 90.9027 100.421 89.6632C100.53 88.9739 101.667 88.9316 102.289 88.5144C104.829 86.8093 106.026 83.8526 104.043 81.0289C107.272 74.5954 103.698 67.3276 97.7667 65.9429C97.2588 65.822 96.9746 65.4229 96.8476 64.9211C96.116 61.9402 94.1811 60.0295 91.4783 58.7537C90.3597 58.2216 89.5193 58.2216 88.6184 59.2737C87.403 60.6946 85.9882 61.9402 84.4886 63.4276C84.4886 62.2969 84.4342 61.4867 84.5007 60.6886C84.5733 59.7937 84.144 59.7332 83.4607 59.9146C81.2235 60.5132 79.2947 61.6258 78.1701 63.7057C77.1603 65.5801 75.9873 67.2006 74.4999 68.7908C71.2711 72.2554 70.6301 76.4759 72.958 80.92C71.3315 83.8405 71.8939 85.86 73.6534 87.68C75.3162 89.4032 76.7068 91.6706 77.1603 93.805C77.1664 93.8474 77.1603 93.8957 77.1603 93.9381C77.0757 93.9562 76.991 93.9562 76.9064 93.9441C76.6524 93.0311 76.0115 93.4543 75.5036 93.5692C72.6859 94.2222 69.8622 94.8511 67.0688 95.5827C62.4856 96.7859 58.634 99.1078 56.04 103.201C52.3819 108.976 49.0201 114.931 45.5615 120.827C44.3885 122.828 42.9253 124.684 42.3146 126.982C41.2383 127.478 40.3313 128.294 39.1825 128.651C36.7397 121.032 36.0383 113.281 37.2234 105.354C38.0216 100.051 39.636 95.0204 42.0485 90.2376C45.7187 90.2316 49.3829 90.2255 53.0531 90.2074C53.8573 90.2013 54.6614 90.2437 55.4475 90.0018C59.3837 88.8046 61.506 85.8479 61.5967 81.8754C61.6814 78.2112 58.9544 74.9884 55.1633 73.9968C60.5265 69.3894 66.7725 66.4267 73.472 64.3043C73.2966 64.1713 73.1636 64.1169 73.0487 64.1411C72.7464 64.2016 72.4441 64.2983 72.1478 64.3829C67.7762 65.5801 63.719 67.5211 59.8674 69.855C58.0233 70.9736 56.2214 72.2071 54.6675 73.7368C54.22 73.755 53.7787 73.7852 53.3312 73.7852C45.4708 73.7912 37.6044 73.9001 29.75 73.7308C26.7207 73.6643 24.3384 74.9461 22.9719 77.1712C21.4543 79.6442 20.7287 82.6674 22.3189 85.6242C23.0808 87.0451 24.1449 88.3148 25.4026 89.1916C26.6784 90.0804 28.3533 90.2497 29.9919 90.2255C33.7407 90.1711 37.4955 90.2255 41.2443 90.2316C41.2988 90.3344 41.3532 90.4372 41.4076 90.5339C41.1778 90.9632 40.9299 91.3804 40.7304 91.8218C38.5234 96.6106 37.1751 101.653 36.51 106.865C36.1472 109.707 35.8932 112.61 36.1653 115.451C36.6007 120.071 37.3444 124.66 38.8499 129.086C36.0444 131.638 34.823 134.8 35.083 138.591C35.3249 142.116 36.6611 145.079 39.5634 147.123C41.8913 148.761 44.5638 149.457 47.442 149.191C48.8568 149.215 50.2657 149.233 51.6805 149.257C52.5391 150.587 53.9056 151.398 55.0726 152.389C57.0861 154.094 59.3051 155.533 61.6088 156.839C65.2851 158.925 69.1548 160.546 73.2422 161.622C76.205 162.408 79.198 162.995 82.2575 163.279C84.8031 163.515 87.3244 163.448 89.9486 163.394C89.6281 162.735 89.1625 162.94 88.8119 162.958C82.4873 163.237 76.332 162.324 70.3641 160.225C63.6162 157.855 57.5819 154.294 52.4605 149.257C57.2735 149.251 62.0865 149.251 66.8995 149.233C67.4074 149.233 67.9818 149.432 68.4171 148.961C81.8221 148.961 95.2211 148.961 108.626 148.961C109.019 149.402 109.545 149.227 110.011 149.233C113.76 149.251 117.514 149.245 121.263 149.251C121.269 149.426 120.973 149.686 121.306 149.747C121.547 149.789 121.729 149.517 121.832 149.269C123.664 149.251 125.496 149.245 127.328 149.209C128.072 149.197 128.852 149.439 129.541 148.949C131.27 149.832 132.969 148.495 134.692 148.888C135.116 147.721 136.264 147.933 137.129 147.619C137.546 147.467 137.879 147.304 137.891 146.82C137.903 146.361 138.181 145.98 138.514 145.853C139.717 145.412 139.989 144.366 140.473 143.356C141.579 141.052 142.426 138.664 141.761 136.167C141.144 133.857 141.374 131.027 138.665 129.679C138.629 129.661 138.586 129.618 138.58 129.582C138.26 128.209 136.754 128.101 136.011 127.182C135.557 126.565 135.738 125.918 135.902 125.265C136.833 121.51 137.425 117.707 137.419 113.825C142.916 113.813 148.418 113.789 153.914 113.789C154.996 113.789 156.055 113.686 157.058 113.281C160.807 111.763 163.014 107.948 162.337 104.223C161.587 100.105 158.231 97.3664 153.944 97.3543C147.638 97.3422 141.337 97.3241 135.031 97.3059C133.9 93.8836 132.522 90.5702 130.659 87.4804C129.099 84.8925 127.545 82.2926 125.339 80.1703C124.946 79.2452 124.184 78.6526 123.452 78.0238C123.361 77.9331 123.277 77.8424 123.186 77.7517C123.095 77.661 123.011 77.5703 122.92 77.4796C122.829 77.3889 122.739 77.2982 122.654 77.2135C122.563 77.1228 122.473 77.0321 122.388 76.9475C122.297 76.8568 122.206 76.7661 122.122 76.6815C122.031 76.5908 121.94 76.5061 121.85 76.4154C121.124 75.6112 120.447 74.7466 119.437 74.2629C119.262 74.0633 119.105 73.8396 118.905 73.6764C114.249 69.8006 108.995 66.989 103.305 64.9574C103.033 64.8606 102.664 64.6429 102.302 65.0843C106.703 66.5718 110.773 68.6397 114.63 71.1127C116.22 72.1345 117.702 73.3317 119.232 74.4503C119.921 75.3089 120.61 76.1675 121.662 76.6149C121.753 76.7056 121.844 76.7963 121.934 76.887C122.025 76.9777 122.116 77.0684 122.2 77.1531C122.291 77.2438 122.382 77.3345 122.466 77.4191C122.557 77.5098 122.648 77.6005 122.733 77.6852C122.829 77.8061 122.92 77.8968 123.011 77.9875Z" fill="#E7E7E7"/>
<path d="M117.019 153.332C117.279 153.254 117.732 153.169 117.514 152.855C117.315 152.571 117.055 153 116.837 153.157C116.74 153.266 116.523 153.363 116.759 153.526C116.783 153.538 116.928 153.399 117.019 153.332Z" fill="#E7E7E7"/>
<path d="M115.755 153.919C115.489 154.112 115.223 154.306 114.957 154.499C114.691 154.681 114.419 154.856 114.153 155.038C113.881 155.201 113.608 155.37 113.336 155.533C112.889 155.799 112.442 156.071 111.994 156.337C105.561 159.953 98.6919 162.197 91.3152 162.837C91.6417 163.382 92.1133 163.23 92.5366 163.176C95.584 162.777 98.6072 162.245 101.534 161.308C105.252 160.117 108.898 158.732 112.188 156.555C112.726 156.434 113.179 156.18 113.53 155.751C113.893 155.715 114.165 155.539 114.334 155.213C114.709 155.195 114.969 155.001 115.138 154.675C115.501 154.644 115.773 154.463 115.948 154.143C116.221 154.094 116.608 153.877 116.487 153.713C116.215 153.332 116.003 153.828 115.755 153.919Z" fill="#E7E7E7"/>
<path d="M118.095 152.528C118.512 152.413 118.893 152.262 118.875 151.694C118.421 151.766 118.179 152.093 117.889 152.347C117.799 152.462 117.587 152.571 117.829 152.716C117.865 152.74 118.004 152.595 118.095 152.528Z" fill="#E7E7E7"/>
<path d="M129.849 66.6625C133.12 66.6625 135.805 66.6685 138.49 66.6625C139.384 66.6625 140.273 66.6262 141.144 66.3783C145.014 65.2537 147.499 61.3718 147.021 57.484C146.507 53.3361 143.018 50.2584 138.816 50.2222C133.187 50.1738 127.552 50.1617 121.916 50.2343C119.963 50.2584 118.161 50.8691 116.656 52.2659C114.316 54.4305 113.627 57.0909 114.11 60.1202C114.606 63.222 117.248 66.2332 120.665 66.5355C123.912 66.8257 127.177 66.5657 129.849 66.6625Z" fill="#E7E7E7"/>
<path d="M100.222 93.4846C102.277 93.533 104.182 94.3251 106.153 94.7604C109.442 95.4799 112.738 96.1874 115.616 98.0981C116.124 98.4367 116.517 98.9748 117.176 99.0776C119.256 101.043 121.118 103.165 122.527 105.698C124.057 108.462 125.768 111.128 127.4 113.837C128.616 115.953 129.861 118.057 131.046 120.198C132.292 122.453 133.888 124.515 134.729 126.988C134.124 126.849 133.519 126.71 132.915 126.571C128.537 125.567 123.398 127.611 121.233 131.221C117.593 131.874 113.947 132.527 110.307 133.18C110.851 127.442 111.329 121.691 111.988 115.965C112.145 114.593 111.704 114.557 110.634 114.563C95.9044 114.587 81.1812 114.581 66.452 114.581C66.2283 114.581 66.0046 114.605 65.7809 114.575C65.1037 114.496 64.9646 114.786 65.0432 115.427C65.2488 117.114 65.3879 118.807 65.5451 120.5C65.9441 124.727 66.3372 128.953 66.7362 133.186C63.1023 132.533 59.4623 131.88 55.8284 131.227C54.7038 129.358 53.0289 128.137 51.088 127.266C48.2099 125.972 45.2713 126.208 42.3267 127C42.9374 124.702 44.4006 122.846 45.5736 120.845C49.0322 114.95 52.394 108.994 56.0521 103.219C58.6461 99.126 62.4977 96.8041 67.0809 95.6009C69.8743 94.8692 72.698 94.2404 75.5157 93.5874C76.0236 93.4725 76.6645 93.0493 76.9185 93.9623C76.8943 95.6553 76.7915 97.3543 76.852 99.0473C77.0092 103.177 78.8654 106.37 82.2938 108.679C82.9891 109.145 83.4487 109.211 84.0775 108.522C85.2747 107.198 86.617 106.007 87.8444 104.707C88.3765 104.145 88.6909 104.163 89.2109 104.713C90.4384 106.013 91.7625 107.216 92.9779 108.528C93.5341 109.127 93.9514 109.211 94.6467 108.758C97.7002 106.769 99.6048 104.036 100.082 100.402C100.367 98.225 100.222 96.0302 100.161 93.8413C100.173 93.7144 100.197 93.5995 100.222 93.4846Z" fill="#3C4750"/>
<path d="M66.7303 133.174C66.3312 128.947 65.9382 124.721 65.5391 120.488C65.3819 118.795 65.2429 117.102 65.0373 115.415C64.9587 114.774 65.0977 114.484 65.7749 114.563C65.9926 114.587 66.2224 114.569 66.4461 114.569C81.1753 114.569 95.8984 114.575 110.628 114.551C111.692 114.551 112.139 114.581 111.982 115.953C111.323 121.679 110.845 127.43 110.301 133.168C110.108 135.072 109.92 136.977 109.715 138.882C109.358 142.249 108.989 145.611 108.626 148.973C95.2212 148.973 81.8223 148.973 68.4173 148.973C67.8549 143.713 67.2926 138.446 66.7303 133.174ZM88.5157 135.32C90.4687 135.32 92.0045 133.778 91.9985 131.831C91.9864 129.903 90.4082 128.361 88.4673 128.391C86.599 128.415 85.0632 129.957 85.039 131.813C85.0087 133.73 86.5869 135.32 88.5157 135.32Z" fill="#FEFEFE"/>
<path d="M127.4 113.837C125.768 111.128 124.057 108.462 122.527 105.698C121.124 103.159 119.256 101.043 117.176 99.0776C118.566 97.7594 120.284 97.3906 122.128 97.3846C126.264 97.3785 130.393 97.3664 134.523 97.3604C134.692 97.3543 134.862 97.3422 135.031 97.3362C141.337 97.3543 147.638 97.3725 153.944 97.3846C158.231 97.3966 161.593 100.136 162.337 104.253C163.014 107.978 160.807 111.793 157.058 113.311C156.061 113.716 154.996 113.819 153.914 113.819C148.418 113.819 142.916 113.837 137.419 113.855C137.274 113.843 137.129 113.837 136.984 113.825C133.798 113.831 130.599 113.831 127.4 113.837Z" fill="#C66A98"/>
<path d="M55.1633 74.003C58.9605 74.9886 61.6814 78.2174 61.5967 81.8816C61.506 85.8541 59.3837 88.8108 55.4475 90.008C54.6614 90.2438 53.8573 90.2075 53.0531 90.2136C49.3829 90.2257 45.7187 90.2317 42.0485 90.2438C41.8853 90.2438 41.716 90.2438 41.5527 90.2438C41.4499 90.2438 41.3471 90.2438 41.2443 90.2438C37.4955 90.2317 33.7407 90.1833 29.9919 90.2378C28.3533 90.262 26.6784 90.0866 25.4026 89.2038C24.1449 88.3271 23.0868 87.0573 22.3189 85.6364C20.7287 82.6797 21.4543 79.6565 22.9719 77.1835C24.3324 74.9644 26.7207 73.6825 29.75 73.743C37.6104 73.9063 45.4708 73.7974 53.3312 73.7974C53.7787 73.7974 54.22 73.7672 54.6675 73.7491C54.7703 73.9546 54.9517 74.003 55.1633 74.003Z" fill="#00838F"/>
<path d="M100.222 93.4845C100.197 93.5994 100.173 93.7142 100.149 93.8291C99.9495 93.8412 99.8648 93.938 99.8044 94.1496C98.1174 99.6337 93.8123 102.887 88.3524 102.826C83.0194 102.772 78.672 99.3193 77.1664 93.944C77.1664 93.9017 77.1725 93.8533 77.1664 93.811C76.719 91.6826 75.3283 89.4092 73.6595 87.6859C71.8939 85.8599 71.3316 83.8464 72.9641 80.926C74.2157 80.3878 75.3948 79.5171 77.0153 80.3032C77.0153 78.4772 77.0878 76.8265 76.9911 75.1879C76.9246 74.0572 77.3962 73.9181 78.3273 74.1056C80.0324 74.4442 81.7315 74.8311 83.4547 75.0307C85.5589 75.2725 87.5784 76.1493 89.7793 75.7079C92.7482 75.1153 95.7472 74.6618 98.7281 74.1056C99.6714 73.9302 100.119 74.0753 100.058 75.1939C99.9616 76.8325 100.034 78.4832 100.034 80.2306C101.649 79.632 102.882 80.2125 104.055 81.0227C106.038 83.8404 104.841 86.7971 102.302 88.5082C101.679 88.9255 100.542 88.9678 100.433 89.6571C100.222 90.9026 99.7802 92.1905 100.222 93.4845ZM80.6613 89.6994C80.758 89.784 80.8548 89.8687 80.9515 89.9534C82.8138 91.2715 84.8273 91.1143 86.5082 89.518C87.8505 88.2785 87.9835 86.7548 87.5603 85.092C87.4877 84.7957 87.0222 84.4329 87.5301 84.179C88.1528 83.8706 88.8542 83.9069 89.4891 84.1367C90.0393 84.3362 89.604 84.7473 89.5193 85.0376C88.957 86.918 89.4589 88.7924 90.8375 89.8929C92.3189 91.0719 94.2054 91.1385 95.9528 90.0803C97.9542 88.6836 98.4621 86.5431 97.2891 84.4148C95.8198 81.9176 93.0021 81.452 90.7286 83.3325C90.6621 83.399 90.5956 83.4655 90.5291 83.532C89.1505 83.5985 87.7659 83.8343 86.3994 83.4292C84.6943 81.8209 82.3482 81.7604 80.5948 83.272C78.8473 84.7836 78.6539 87.1841 80.1292 89.1613C80.2199 89.4273 80.3892 89.6147 80.6613 89.6994Z" fill="#FDB87E"/>
<path d="M129.849 66.6625C127.183 66.5718 123.918 66.8257 120.658 66.5355C117.242 66.2332 114.606 63.2221 114.104 60.1202C113.614 57.0909 114.304 54.4305 116.65 52.2659C118.161 50.8691 119.963 50.2584 121.91 50.2343C127.539 50.1617 133.175 50.1738 138.81 50.2222C143.012 50.2584 146.507 53.3421 147.015 57.484C147.493 61.3718 145.008 65.2537 141.138 66.3783C140.273 66.6323 139.378 66.6625 138.483 66.6625C135.805 66.6625 133.12 66.6625 129.849 66.6625Z" fill="#C66A98"/>
<path d="M66.7301 133.174C67.2925 138.44 67.8548 143.713 68.4111 148.979C67.9757 149.445 67.4073 149.245 66.8934 149.251C62.0804 149.269 57.2674 149.269 52.4545 149.275C52.1945 149.275 51.9345 149.269 51.6745 149.269C50.2596 149.245 48.8508 149.227 47.4359 149.203C47.3633 148.58 46.7708 148.671 46.408 148.514C42.0122 146.663 39.6904 142.255 40.688 137.606C41.6192 133.283 45.622 130.283 50.2596 130.404C52.1521 130.453 53.9479 131.063 55.8223 131.215C59.4623 131.868 63.0962 132.521 66.7301 133.174Z" fill="#FDB87E"/>
<path d="M108.626 148.985C108.989 145.623 109.358 142.255 109.715 138.893C109.92 136.989 110.108 135.084 110.301 133.18C113.941 132.527 117.587 131.874 121.227 131.221C122.545 130.997 123.863 130.779 125.181 130.543C129.39 129.781 133.435 131.626 135.466 135.235C137.377 138.627 136.845 142.987 134.142 146.095C132.903 147.522 131.24 148.284 129.541 148.979C128.852 149.469 128.072 149.227 127.328 149.239C125.496 149.275 123.664 149.281 121.832 149.299C121.644 149.293 121.451 149.281 121.263 149.275C117.515 149.269 113.76 149.275 110.011 149.257C109.545 149.251 109.019 149.426 108.626 148.985Z" fill="#FDB87E"/>
<path d="M104.037 81.029C102.864 80.2187 101.63 79.6383 100.016 80.2369C100.016 78.4834 99.9433 76.8388 100.04 75.2002C100.107 74.0816 99.6531 73.9365 98.7098 74.1118C95.7289 74.662 92.7299 75.1216 89.7611 75.7141C87.5662 76.1495 85.5406 75.2788 83.4365 75.0369C81.7132 74.8374 80.0142 74.4504 78.3091 74.1118C77.3839 73.9244 76.9063 74.0634 76.9728 75.1941C77.0695 76.8327 76.997 78.4834 76.997 80.3094C75.3765 79.5234 74.1975 80.3941 72.9458 80.9322C70.618 76.482 71.2589 72.2676 74.4877 68.803C75.9751 67.2068 77.1481 65.5863 78.1579 63.7179C79.2765 61.644 81.2053 60.5315 83.4486 59.9268C84.1318 59.7454 84.5611 59.8059 84.4885 60.7008C84.422 61.4989 84.4764 62.3091 84.4764 63.4398C85.976 61.9524 87.3969 60.7068 88.6062 59.2859C89.5071 58.2338 90.3476 58.2338 91.4662 58.7659C94.1689 60.0417 96.1038 61.9524 96.8354 64.9333C96.9624 65.4412 97.2466 65.8403 97.7545 65.9551C103.692 67.3277 107.266 74.5955 104.037 81.029Z" fill="#3C4750"/>
<path d="M55.8223 131.214C53.9539 131.063 52.1521 130.453 50.2595 130.404C45.628 130.283 41.6252 133.282 40.688 137.606C39.6843 142.255 42.0122 146.669 46.408 148.513C46.7707 148.665 47.3633 148.574 47.4359 149.203C44.5577 149.463 41.8852 148.767 39.5573 147.129C36.655 145.085 35.3187 142.122 35.0769 138.597C34.8169 134.806 36.0383 131.644 38.8438 129.092C38.9527 128.941 39.0675 128.796 39.1764 128.645C40.3252 128.288 41.2322 127.472 42.3084 126.976C45.2591 126.19 48.1977 125.948 51.0698 127.242C53.0288 128.131 54.6976 129.352 55.8223 131.214Z" fill="#00838F"/>
<path d="M129.541 148.973C131.24 148.278 132.903 147.516 134.142 146.089C136.845 142.981 137.377 138.615 135.466 135.229C133.435 131.62 129.39 129.782 125.181 130.537C123.863 130.773 122.545 130.991 121.227 131.215C123.392 127.611 128.531 125.561 132.909 126.565C133.513 126.704 134.118 126.843 134.723 126.982C134.789 126.976 134.85 126.988 134.91 127.012C135.231 127.351 135.642 127.176 136.011 127.212C136.754 128.131 138.26 128.24 138.58 129.612C138.586 129.649 138.629 129.691 138.665 129.709C141.374 131.063 141.144 133.887 141.761 136.197C142.426 138.694 141.579 141.082 140.473 143.386C139.989 144.396 139.717 145.442 138.514 145.883C138.175 146.01 137.903 146.391 137.891 146.851C137.879 147.328 137.54 147.498 137.129 147.649C136.265 147.963 135.11 147.752 134.693 148.919C132.975 148.526 131.27 149.862 129.541 148.973Z" fill="#00838F"/>
<path d="M77.1603 93.9442C78.6719 99.3195 83.0132 102.766 88.3462 102.826C93.8062 102.887 98.1113 99.6279 99.7982 94.1498C99.8647 93.9382 99.9433 93.8475 100.143 93.8293C100.203 96.0182 100.348 98.213 100.064 100.39C99.5926 104.024 97.688 106.757 94.6285 108.746C93.9332 109.199 93.5099 109.115 92.9597 108.516C91.7443 107.21 90.4141 106.001 89.1927 104.701C88.6727 104.151 88.3583 104.126 87.8262 104.695C86.6048 105.995 85.2625 107.192 84.0593 108.51C83.4304 109.199 82.9709 109.139 82.2756 108.667C78.8472 106.358 76.991 103.165 76.8337 99.0354C76.7672 97.3423 76.87 95.6433 76.9003 93.9503C76.991 93.9624 77.0756 93.9624 77.1603 93.9442Z" fill="#FDFDFD"/>
<path d="M51.6804 149.269C51.9404 149.269 52.2004 149.275 52.4604 149.275C57.5818 154.312 63.6161 157.867 70.364 160.244C76.3318 162.342 82.4811 163.255 88.8117 162.977C89.1624 162.958 89.628 162.753 89.9485 163.412C87.3243 163.466 84.8029 163.533 82.2574 163.297C79.1918 163.013 76.2049 162.42 73.2421 161.64C69.1547 160.558 65.285 158.944 61.6087 156.858C59.3111 155.552 57.086 154.113 55.0725 152.407C53.9055 151.416 52.539 150.606 51.6804 149.269Z" fill="#4F6D78"/>
<path d="M39.1825 128.651C39.0737 128.802 38.9588 128.947 38.85 129.098C37.3504 124.672 36.6067 120.077 36.1653 115.463C35.8932 112.622 36.1532 109.719 36.51 106.877C37.1751 101.665 38.5235 96.6227 40.7304 91.8339C40.936 91.3925 41.1839 90.9753 41.4076 90.546C41.456 90.4432 41.5044 90.3464 41.5527 90.2437C41.716 90.2437 41.8853 90.2437 42.0485 90.2437C39.63 95.0264 38.0156 100.057 37.2235 105.36C36.0384 113.281 36.7398 121.038 39.1825 128.651Z" fill="#4F6D78"/>
<path d="M55.1633 74.0029C54.9517 74.0029 54.7703 73.9545 54.6675 73.7429C56.2214 72.2071 58.0233 70.9736 59.8674 69.8611C63.719 67.5211 67.7762 65.5862 72.1478 64.389C72.4501 64.3044 72.7464 64.2076 73.0487 64.1472C73.1636 64.123 73.2966 64.1774 73.472 64.3104C66.7725 66.4327 60.5265 69.3955 55.1633 74.0029Z" fill="#4F6D78"/>
<path d="M112.181 156.555C108.898 158.732 105.252 160.117 101.528 161.308C98.6011 162.245 95.5779 162.777 92.5305 163.176C92.1012 163.231 91.6356 163.382 91.3091 162.838C98.6918 162.197 105.555 159.953 111.988 156.338C112.061 156.41 112.121 156.483 112.181 156.555Z" fill="#4F6D78"/>
<path d="M135.037 97.3361C134.868 97.3422 134.698 97.3543 134.529 97.3603C132.697 91.5496 129.789 86.3255 125.955 81.6032C125.647 81.2223 125.326 80.8656 125.193 80.3818C125.242 80.3214 125.296 80.2609 125.351 80.2004C127.551 82.3227 129.111 84.9227 130.671 87.5106C132.528 90.6004 133.906 93.9199 135.037 97.3361Z" fill="#4F6D78"/>
<path d="M119.232 74.4805C117.702 73.3619 116.22 72.1647 114.63 71.1429C110.779 68.6638 106.709 66.596 102.302 65.1146C102.664 64.6732 103.033 64.8908 103.305 64.9876C108.995 67.0192 114.249 69.8248 118.905 73.7066C119.105 73.8759 119.262 74.0996 119.437 74.2931C119.371 74.3536 119.304 74.414 119.232 74.4805Z" fill="#4F6D78"/>
<path d="M136.016 127.212C135.642 127.176 135.23 127.351 134.916 127.012C136.373 122.737 136.936 118.317 136.99 113.825C137.135 113.837 137.28 113.843 137.425 113.855C137.431 117.737 136.839 121.54 135.908 125.295C135.744 125.948 135.569 126.595 136.016 127.212Z" fill="#4F6D78"/>
<path d="M119.443 74.2871C120.453 74.7708 121.13 75.6355 121.856 76.4396C121.795 76.5062 121.729 76.5727 121.668 76.6392C120.61 76.1917 119.927 75.3331 119.238 74.4745C119.304 74.4141 119.371 74.3536 119.443 74.2871Z" fill="#4F6D78"/>
<path d="M125.193 80.3819C124.365 79.8317 123.652 79.1847 123.265 78.2415C123.331 78.181 123.398 78.1205 123.464 78.0601C124.196 78.6889 124.958 79.2814 125.351 80.2066C125.296 80.261 125.242 80.3214 125.193 80.3819Z" fill="#4F6D78"/>
<path d="M119.522 150.998C119.994 150.581 120.465 150.164 120.943 149.747C120.78 150.509 120.344 150.95 119.709 151.186C119.649 151.119 119.588 151.059 119.522 150.998Z" fill="#4F6D78"/>
<path d="M113.53 155.745C113.179 156.174 112.726 156.428 112.187 156.549C112.127 156.477 112.06 156.404 112 156.332C112.447 156.065 112.895 155.793 113.342 155.527C113.397 155.606 113.463 155.679 113.53 155.745Z" fill="#4F6D78"/>
<path d="M117.889 152.347C118.18 152.099 118.421 151.772 118.875 151.694C118.893 152.262 118.518 152.413 118.095 152.528C118.028 152.468 117.956 152.407 117.889 152.347Z" fill="#4F6D78"/>
<path d="M114.334 155.207C114.165 155.533 113.893 155.709 113.53 155.745C113.463 155.672 113.403 155.6 113.336 155.527C113.609 155.364 113.881 155.195 114.153 155.031C114.213 155.098 114.274 155.152 114.334 155.207Z" fill="#4F6D78"/>
<path d="M114.153 155.038C114.419 154.856 114.691 154.681 114.957 154.5C115.017 154.56 115.078 154.614 115.138 154.675C114.969 155.001 114.709 155.195 114.334 155.213C114.274 155.153 114.213 155.098 114.153 155.038Z" fill="#4F6D78"/>
<path d="M114.957 154.499C115.223 154.306 115.489 154.112 115.755 153.919C115.821 153.992 115.888 154.064 115.948 154.137C115.773 154.457 115.507 154.638 115.138 154.669C115.078 154.614 115.017 154.56 114.957 154.499Z" fill="#4F6D78"/>
<path d="M116.837 153.157C117.055 153 117.315 152.571 117.514 152.855C117.732 153.169 117.285 153.254 117.019 153.332C116.958 153.266 116.898 153.211 116.837 153.157Z" fill="#4F6D78"/>
<path d="M115.755 153.919C116.003 153.822 116.22 153.333 116.487 153.707C116.607 153.871 116.22 154.088 115.948 154.137C115.882 154.064 115.815 153.992 115.755 153.919Z" fill="#4F6D78"/>
<path d="M121.263 149.269C121.451 149.275 121.644 149.287 121.832 149.293C121.729 149.541 121.547 149.813 121.306 149.771C120.973 149.711 121.269 149.445 121.263 149.269Z" fill="#4F6D78"/>
<path d="M121.856 76.4397C121.947 76.5304 122.037 76.615 122.128 76.7057C122.061 76.7722 122.001 76.8448 121.934 76.9113C121.844 76.8206 121.753 76.7299 121.662 76.6392C121.729 76.5788 121.795 76.5062 121.856 76.4397Z" fill="#4F6D78"/>
<path d="M122.128 76.7056C122.219 76.7963 122.309 76.887 122.394 76.9716C122.327 77.0381 122.267 77.1107 122.2 77.1772C122.11 77.0865 122.019 76.9958 121.934 76.9111C122.001 76.8446 122.061 76.7781 122.128 76.7056Z" fill="#4F6D78"/>
<path d="M122.394 76.9778C122.485 77.0685 122.575 77.1592 122.66 77.2438C122.593 77.3103 122.533 77.3829 122.466 77.4494C122.376 77.3587 122.285 77.268 122.2 77.1834C122.267 77.1108 122.333 77.0443 122.394 76.9778Z" fill="#4F6D78"/>
<path d="M122.666 77.2439C122.757 77.3346 122.847 77.4253 122.932 77.5099C122.865 77.5765 122.805 77.649 122.738 77.7155C122.648 77.6248 122.557 77.5341 122.472 77.4495C122.539 77.383 122.599 77.3104 122.666 77.2439Z" fill="#4F6D78"/>
<path d="M123.011 77.9875C122.92 77.8968 122.829 77.8061 122.739 77.7214C122.805 77.6549 122.866 77.5824 122.932 77.5159C123.023 77.6066 123.107 77.6973 123.198 77.788C123.138 77.8545 123.071 77.921 123.011 77.9875Z" fill="#4F6D78"/>
<path d="M123.265 78.2416C123.18 78.1569 123.095 78.0723 123.011 77.9876C123.071 77.9211 123.138 77.8546 123.198 77.7881C123.289 77.8788 123.374 77.9695 123.464 78.0602C123.398 78.1146 123.331 78.1751 123.265 78.2416Z" fill="#4F6D78"/>
<path d="M41.5589 90.2438C41.5105 90.3466 41.4621 90.4433 41.4137 90.5461C41.3593 90.4433 41.3049 90.3405 41.2505 90.2438C41.3533 90.2377 41.4561 90.2377 41.5589 90.2438Z" fill="#B7BFC3"/>
<path d="M119.709 151.186C119.618 151.277 119.528 151.367 119.443 151.458C119.365 151.398 119.286 151.337 119.213 151.277C119.316 151.186 119.425 151.095 119.528 151.005C119.588 151.059 119.649 151.12 119.709 151.186Z" fill="#4F6D78"/>
<path d="M119.437 151.452C119.347 151.597 119.244 151.754 119.068 151.573C119.038 151.543 119.153 151.374 119.201 151.271C119.286 151.331 119.365 151.392 119.437 151.452Z" fill="#4F6D78"/>
<path d="M118.095 152.528C118.004 152.595 117.865 152.74 117.829 152.722C117.587 152.577 117.799 152.468 117.889 152.347C117.956 152.407 118.028 152.468 118.095 152.528Z" fill="#4F6D78"/>
<path d="M117.019 153.333C116.928 153.399 116.789 153.544 116.759 153.526C116.523 153.363 116.74 153.272 116.837 153.157C116.898 153.212 116.958 153.266 117.019 153.333Z" fill="#4F6D78"/>
<path d="M136.99 113.825C136.936 118.324 136.373 122.737 134.916 127.012C134.856 126.988 134.789 126.976 134.729 126.982C133.888 124.509 132.292 122.447 131.046 120.192C129.867 118.051 128.622 115.953 127.4 113.831C130.599 113.831 133.798 113.831 136.99 113.825Z" fill="#E7E7E7"/>
<path d="M88.5155 135.32C86.5867 135.32 85.0086 133.73 85.0327 131.819C85.0569 129.957 86.5988 128.421 88.4611 128.397C90.402 128.367 91.9801 129.909 91.9922 131.837C92.0043 133.784 90.4685 135.32 88.5155 135.32ZM85.4923 131.849C85.4862 133.524 86.9011 134.951 88.5457 134.933C90.1541 134.915 91.5085 133.561 91.5448 131.934C91.5811 130.193 90.2992 128.856 88.576 128.844C86.8467 128.832 85.4923 130.15 85.4923 131.849Z" fill="#4F6D78"/>
<path d="M86.3993 83.4294C87.7658 83.8285 89.1505 83.5987 90.5291 83.5322C90.5956 83.6229 90.6621 83.7076 90.7346 83.7983C90.0635 84.7173 89.6221 85.7029 89.737 86.8759C90.0151 89.742 92.6272 91.048 95.723 89.8568C95.8016 89.9294 95.8802 90.008 95.9588 90.0806C94.2113 91.1387 92.3248 91.0661 90.8435 89.8871C89.4649 88.7866 88.963 86.9122 89.5253 85.0318C89.61 84.7415 90.0453 84.3304 89.4951 84.1308C88.8602 83.9071 88.1588 83.8648 87.5361 84.1732C87.0281 84.4271 87.4877 84.7959 87.5663 85.0862C87.9895 86.755 87.8565 88.2727 86.5142 89.5122C86.4477 89.4396 86.3751 89.3731 86.3086 89.3006C87.79 86.9485 87.7658 85.7694 86.1816 83.6532C86.2482 83.5866 86.3207 83.508 86.3993 83.4294Z" fill="#4F6D78"/>
<path d="M80.1231 89.1615C78.6478 87.1843 78.8413 84.7778 80.5887 83.2723C82.3422 81.7606 84.6882 81.8211 86.3933 83.4295C86.3208 83.5081 86.2482 83.5867 86.1696 83.6653C84.1078 82.3109 82.2757 82.3169 80.8064 83.6834C79.3734 85.0197 79.2162 86.882 80.3771 88.9136C80.2924 88.9983 80.2078 89.0829 80.1231 89.1615Z" fill="#4F6D78"/>
<path d="M90.7227 83.3266C92.9961 81.4462 95.8198 81.9117 97.2831 84.4089C97.2045 84.4694 97.1198 84.5298 97.0412 84.5843C95.0338 82.3229 93.5222 82.0629 90.9827 83.5322C90.9041 83.4657 90.8134 83.3931 90.7227 83.3266Z" fill="#4F6D78"/>
<path d="M97.2891 84.4089C98.4621 86.5373 97.9603 88.6838 95.9529 90.0745C95.8742 90.0019 95.7956 89.9233 95.717 89.8507C97.4463 88.4177 97.8514 86.6522 97.0473 84.5843C97.1259 84.5299 97.2045 84.4694 97.2891 84.4089Z" fill="#4F6D78"/>
<path d="M86.5081 89.518C84.8272 91.1143 82.8137 91.2715 80.9514 89.9534C81.024 89.8687 81.0965 89.7841 81.1691 89.6994C82.977 90.8362 84.676 90.5459 86.3025 89.3064C86.3691 89.379 86.4356 89.4515 86.5081 89.518Z" fill="#4F6D78"/>
<path d="M80.6612 89.6996C80.3891 89.615 80.2198 89.4215 80.123 89.1615C80.2077 89.0768 80.2923 88.9982 80.377 88.9136C80.5463 89.1071 80.7156 89.2945 80.8849 89.488C80.8123 89.5605 80.7398 89.6331 80.6612 89.6996Z" fill="#4F6D78"/>
<path d="M90.5229 83.5262C90.5895 83.4597 90.656 83.3932 90.7225 83.3267C90.8071 83.3932 90.8978 83.4657 90.9885 83.5322C90.9039 83.6169 90.8132 83.7076 90.7285 83.7922C90.662 83.7076 90.5955 83.6169 90.5229 83.5262Z" fill="#4F6D78"/>
<path d="M80.9514 89.9534C80.8546 89.8687 80.7579 89.7841 80.6611 89.6994C80.7337 89.6269 80.8123 89.5604 80.8849 89.4878C80.9756 89.5543 81.0723 89.6269 81.163 89.6934C81.0965 89.7841 81.0239 89.8687 80.9514 89.9534Z" fill="#4F6D78"/>
<path d="M85.4925 131.849C85.4985 130.15 86.8529 128.832 88.5761 128.844C90.2994 128.856 91.5812 130.193 91.545 131.934C91.5147 133.561 90.1603 134.915 88.5459 134.933C86.9013 134.951 85.4864 133.524 85.4925 131.849Z" fill="#FDFDFD"/>
<path d="M81.1632 89.6996C81.0725 89.6331 80.9757 89.5605 80.885 89.494C80.7157 89.3005 80.5464 89.107 80.3771 88.9196C79.2223 86.888 79.3734 85.0196 80.8064 83.6894C82.2818 82.3229 84.1078 82.3108 86.1696 83.6713C87.7538 85.7875 87.778 86.9606 86.2966 89.3187C84.6701 90.5461 82.9711 90.8363 81.1632 89.6996Z" fill="#FDB87E"/>
<path d="M90.7285 83.792C90.8131 83.7074 90.9038 83.6167 90.9885 83.532C93.528 82.0627 95.0336 82.3288 97.047 84.5841C97.8512 86.652 97.4522 88.4176 95.7168 89.8506C92.621 91.0417 90.009 89.7357 89.7308 86.8697C89.6159 85.6967 90.0573 84.7111 90.7285 83.792Z" fill="#FDB87E"/>
<path d="M69.8079 24.573C69.2637 20.3224 68.4535 16.108 67.6735 11.8936C67.087 8.73129 66.2828 5.40574 63.834 3.15041C59.5712 -0.773744 51.8076 3.21692 47.6537 5.20016C40.8091 8.47129 34.5691 12.7945 27.9361 16.4405C27.8031 16.5131 27.7427 16.6038 27.7185 16.6884C25.8501 17.7828 24.2176 19.1312 23.4678 20.8786C21.9864 24.3372 29.871 26.9856 31.8724 27.8018C37.3021 30.0148 42.5686 32.1553 47.8774 34.7008C51.1606 36.2729 54.4922 37.7059 57.854 39.0845C60.2303 40.0641 62.927 41.1827 65.5512 40.9227C73.2241 40.1608 70.4246 29.38 69.8079 24.573Z" fill="#FFD0CA"/>
<path d="M30.2822 22.8679C30.4334 23.406 31.8301 23.8414 31.6306 23.1097C31.4794 22.5716 30.0767 22.1363 30.2822 22.8679Z" fill="#FFFBE9"/>
<path d="M28.1538 20.9087C28.1417 20.9329 28.1356 20.9571 28.1235 20.9753C27.9542 21.3622 28.4319 21.6706 28.7161 21.7976C28.9398 21.8943 29.1696 21.9246 29.3691 21.7734C29.4477 21.7129 29.4417 21.6404 29.4114 21.5618C29.4175 21.4287 29.351 21.2776 29.2603 21.1869C29.23 21.1627 29.1998 21.1264 29.1696 21.0962C29.0003 20.9269 28.3352 20.5097 28.1538 20.9087Z" fill="#FFFBE9"/>
<path d="M30.7658 18.9076C30.7477 18.9197 30.7295 18.9378 30.7174 18.9499C30.5118 19.1071 30.6086 19.3913 30.7658 19.5545C30.7597 19.5727 30.7597 19.5848 30.7537 19.6029C30.7053 19.8024 31.1467 20.0564 31.2979 19.9113C31.3039 19.9052 31.31 19.8992 31.316 19.8931C31.4309 19.9234 31.5397 19.9476 31.6607 19.9294C32.6523 19.7964 31.3946 18.4057 30.7658 18.9076Z" fill="#FFFBE9"/>
<path d="M34.6657 19.1131C34.6295 19.1312 34.6113 19.1675 34.5992 19.2159C34.5871 19.2461 34.5871 19.2764 34.5811 19.3126H34.575C34.4602 19.4577 34.6536 19.6936 34.7625 19.7782C34.9922 19.9475 35.2643 20.1047 35.5606 20.0987C35.8871 20.0866 36.0383 19.8145 35.8811 19.5303C35.6815 19.1857 34.9257 18.8471 34.6657 19.1131Z" fill="#FFFBE9"/>
<path d="M32.9124 21.8581C32.8217 21.9791 32.9245 22.1181 33.0515 22.227C33.0636 22.2451 33.0696 22.2693 33.0878 22.2874C33.2208 22.4809 33.8919 22.9102 33.9706 22.4447C34.0552 21.9609 33.251 21.4047 32.9124 21.8581Z" fill="#FFFBE9"/>
<path d="M36.9997 26.635C37.1025 27.0098 37.5258 27.2759 37.8946 27.3424C38.1848 27.3908 38.5839 27.2759 38.4811 26.901C38.3783 26.5261 37.9551 26.2601 37.5862 26.1936C37.302 26.1452 36.8969 26.2601 36.9997 26.635Z" fill="#FFFBE9"/>
<path d="M42.9616 25.7582C42.9556 25.7703 42.9495 25.7764 42.9314 25.8187C42.9072 25.8973 42.8588 25.9638 42.8346 26.0424C42.8044 26.1513 42.9737 26.2661 43.0523 26.2903C43.3546 26.3871 43.669 26.4415 43.9895 26.4536C44.3342 26.4717 44.4793 26.1513 44.316 25.8731C44.1104 25.5164 43.7537 25.3289 43.3486 25.3229C43.0825 25.3169 42.9193 25.4982 42.9616 25.7582Z" fill="#FFFBE9"/>
<path d="M62.014 32.7115C61.7237 32.9655 61.9233 33.2618 62.2014 33.4734C62.4796 33.7938 63.5074 34.3803 63.574 33.6729C63.6405 33.0199 62.5944 32.2036 62.014 32.7115Z" fill="#FFFBE9"/>
<path d="M59.0452 33.6731C59.0452 33.667 59.0452 33.661 59.0452 33.6489C59.0331 33.667 59.0331 33.6852 59.0331 33.7033C59.0331 33.7094 59.0271 33.7154 59.0271 33.7215C59.0452 33.6489 58.9908 33.8122 58.9908 33.8122C58.9848 33.8726 59.0271 33.9331 59.0755 33.9754C59.0876 34.0117 59.1117 34.0419 59.1238 34.0782C59.2145 34.2596 59.9703 34.6526 59.9582 34.2294C59.9462 33.8847 59.6983 33.6187 59.3536 33.5582C59.2206 33.5401 59.0996 33.5642 59.0452 33.6731Z" fill="#FFFBE9"/>
<path d="M57.6667 28.4852C57.715 28.5457 57.7513 28.6061 57.7815 28.6787C57.9025 28.9024 58.8094 29.3922 58.8155 28.8661C58.8155 28.8117 58.8155 28.7573 58.8215 28.7029C58.9667 28.2554 58.4285 27.8987 58.0476 27.8261C57.5457 27.7354 57.3825 28.1224 57.6667 28.4852Z" fill="#FFFBE9"/>
<path d="M62.5944 28.0679C62.534 28.4186 63.3079 28.7935 63.5437 28.7814C63.6646 28.7754 63.7916 28.7693 63.8884 28.6786C64.1363 28.467 63.9307 28.1102 63.707 27.9591C63.4712 27.7958 63.2595 27.7172 62.9874 27.6447C62.6609 27.554 62.4795 27.814 62.5944 28.0679Z" fill="#FFFBE9"/>
<path d="M60.4298 29.9725C60.2061 30.2688 60.6172 30.6437 60.853 30.7586C61.0646 30.8614 61.3912 30.9883 61.6088 30.8251C61.6451 30.8009 61.6814 30.7707 61.7116 30.7344C62.0623 30.4018 61.4274 29.9242 61.113 29.9C61.0586 29.8939 61.0042 29.8879 60.9437 29.8758C60.7563 29.8153 60.5567 29.8032 60.4298 29.9725Z" fill="#FFFBE9"/>
<path d="M56.554 30.8373C56.1851 31.1033 56.7837 31.581 57.0195 31.6596C57.2795 31.7442 57.5335 31.7866 57.7935 31.6959C58.2046 31.5507 57.7572 31.2001 57.467 31.0852C57.2372 30.8433 56.8381 30.6377 56.554 30.8373Z" fill="#FFFBE9"/>
<path d="M57.9388 25.3227C57.8783 25.625 58.0779 25.8669 58.2351 26.0966C58.3197 26.2176 58.7732 26.5501 58.8821 26.278C58.9607 26.0724 59.1481 26.0543 59.2388 25.8669C59.4323 25.4799 58.8337 25.1292 58.5374 25.0748C58.5132 25.0687 58.489 25.0627 58.4649 25.0627C58.2411 25.0204 57.9932 25.0687 57.9388 25.3227Z" fill="#FFFBE9"/>
<path d="M66.1921 29.4163C65.7387 29.5433 66.0349 30.0331 66.2587 30.2205C66.5428 30.4684 66.9359 30.6256 67.3107 30.5047C67.8065 30.3414 67.4075 29.8759 67.0447 29.6582C66.8149 29.4587 66.4582 29.3377 66.1921 29.4163Z" fill="#FFFBE9"/>
<path d="M60.6958 18.7563C60.6897 18.7684 60.6777 18.7805 60.6716 18.7926C60.5144 19.0224 60.8046 19.3005 61.0404 19.4335C61.3186 19.6693 61.9232 19.9656 61.9776 19.5C62.0321 19.0345 61.6088 18.6596 61.1614 18.6112C60.986 18.5931 60.8046 18.5931 60.6958 18.7563Z" fill="#FFFBE9"/>
<path d="M52.908 19.3912C53.0349 19.8447 54.2261 20.2196 54.0507 19.5968C53.9238 19.1433 52.7326 18.7745 52.908 19.3912Z" fill="#FFFBE9"/>
<path d="M53.8331 23.1943C53.8815 23.2487 53.9238 23.3092 53.9722 23.3636C54.0689 23.4845 54.5587 23.7566 54.6554 23.4906C54.6736 23.4422 54.6917 23.3999 54.7099 23.3515C54.994 22.6078 53.2406 22.4566 53.8331 23.1943Z" fill="#FFFBE9"/>
<path d="M119.159 27.6446C117.164 26.7497 115.114 25.9758 113.076 25.1897C111.547 24.6032 109.884 24.0651 108.251 24.5246C105.409 25.3348 105.071 29.773 104.823 32.1069C104.418 35.9585 104.635 39.8282 104.454 43.6798C104.448 43.7584 104.472 43.8068 104.502 43.8431C104.478 44.9496 104.629 46.0198 105.192 46.8119C106.298 48.3779 109.557 45.657 110.446 45.004C112.859 43.2324 115.193 41.5152 117.714 39.8826C119.274 38.8729 120.786 37.8087 122.285 36.7143C123.343 35.9403 124.552 35.0697 125.139 33.8604C126.85 30.3171 121.414 28.6604 119.159 27.6446Z" fill="#00838F"/>
<path d="M107.87 44.3813C108.142 44.4599 108.705 43.9641 108.336 43.8613C108.064 43.7827 107.502 44.2724 107.87 44.3813Z" fill="#FFFBE9"/>
<path d="M106.455 44.7863C106.461 44.7984 106.467 44.8044 106.48 44.8165C106.6 44.9919 106.867 44.8709 106.994 44.7802C107.096 44.7077 107.169 44.617 107.157 44.49C107.151 44.4417 107.114 44.4235 107.078 44.4114C107.024 44.3751 106.939 44.363 106.873 44.3751C106.854 44.3812 106.83 44.3872 106.812 44.3933C106.685 44.4235 106.328 44.5989 106.455 44.7863Z" fill="#FFFBE9"/>
<path d="M106.28 43.1115C106.28 43.1236 106.286 43.1357 106.286 43.1478C106.304 43.2808 106.449 43.3111 106.558 43.2869C106.564 43.2929 106.57 43.299 106.576 43.305C106.649 43.3776 106.879 43.2567 106.855 43.1478C106.855 43.1418 106.855 43.1418 106.855 43.1357C106.897 43.0934 106.939 43.0511 106.963 42.9967C107.169 42.5311 106.232 42.7064 106.28 43.1115Z" fill="#FFFBE9"/>
<path d="M107.411 41.473C107.411 41.4911 107.423 41.5093 107.435 41.5274C107.447 41.5395 107.459 41.5516 107.471 41.5576C107.471 41.5576 107.471 41.5576 107.471 41.5637C107.508 41.6544 107.659 41.6302 107.725 41.606C107.858 41.5516 108.003 41.473 108.076 41.346C108.161 41.2009 108.082 41.0618 107.919 41.0558C107.713 41.0497 107.362 41.2855 107.411 41.473Z" fill="#FFFBE9"/>
<path d="M108.136 42.9663C108.167 43.0389 108.251 43.0268 108.33 43.0026C108.342 43.0026 108.354 43.0026 108.366 43.0026C108.487 42.9966 108.85 42.8152 108.674 42.658C108.487 42.4947 108.027 42.7003 108.136 42.9663Z" fill="#FFFBE9"/>
<path d="M111.305 42.4644C111.498 42.5188 111.728 42.4039 111.849 42.2649C111.946 42.15 112.006 41.9444 111.813 41.89C111.619 41.8356 111.389 41.9444 111.268 42.0895C111.172 42.2044 111.111 42.41 111.305 42.4644Z" fill="#FFFBE9"/>
<path d="M112.514 39.6348C112.52 39.6409 112.52 39.6469 112.532 39.659C112.556 39.6892 112.574 39.7316 112.605 39.7618C112.647 39.8041 112.738 39.7618 112.768 39.7316C112.889 39.6227 112.998 39.5018 113.088 39.3688C113.191 39.2237 113.088 39.0725 112.925 39.0725C112.713 39.0665 112.538 39.1753 112.429 39.3506C112.357 39.4655 112.387 39.5865 112.514 39.6348Z" fill="#FFFBE9"/>
<path d="M107.229 28.0498C107.375 28.0256 107.864 27.7232 107.604 27.5419C107.586 27.5298 107.586 27.5358 107.598 27.566C107.55 27.3121 107.181 27.5419 107.108 27.6507C107.127 27.6144 107.127 27.6084 107.108 27.6326C106.885 27.7958 106.915 28.1042 107.229 28.0498Z" fill="#FFFBE9"/>
<path d="M108.009 25.9273C108.203 26.1329 108.735 25.7278 108.511 25.5645C108.336 25.4315 107.822 25.7338 108.009 25.9273Z" fill="#FFFBE9"/>
<path d="M110.724 26.9796L110.767 26.9614C110.875 26.913 111.111 26.7679 111.027 26.6107C110.948 26.4596 110.682 26.5624 110.591 26.647C110.579 26.6591 110.567 26.6651 110.555 26.6772C110.361 26.8405 110.458 27.1005 110.724 26.9796Z" fill="#FFFBE9"/>
<path d="M108.717 30.6255C108.717 30.6316 108.711 30.6376 108.711 30.6437C108.711 30.6558 108.705 30.6618 108.705 30.6739C108.705 30.7827 108.783 30.819 108.886 30.819C108.892 30.819 108.898 30.8251 108.904 30.8251C108.91 30.8251 108.923 30.819 108.929 30.819C109.104 30.813 109.297 30.7102 109.382 30.559C109.467 30.4079 109.418 30.2688 109.37 30.1116C109.322 29.9604 109.037 30.1116 108.983 30.1781C108.886 30.3051 108.747 30.4562 108.717 30.6255Z" fill="#FFFBE9"/>
<path d="M108.584 28.0256C108.789 28.0861 109.037 27.9652 109.176 27.8079C109.285 27.687 109.346 27.4633 109.14 27.4028C108.934 27.3424 108.687 27.4633 108.547 27.6205C108.439 27.7414 108.378 27.9652 108.584 28.0256Z" fill="#FFFBE9"/>
<path d="M110.301 28.8358C110.47 28.8841 110.676 28.7814 110.785 28.6604C110.875 28.5576 110.924 28.3762 110.754 28.3279C110.585 28.2795 110.38 28.3762 110.271 28.5032C110.18 28.6 110.132 28.7874 110.301 28.8358Z" fill="#FFFBE9"/>
<path d="M110.561 29.8093C110.573 29.8033 110.585 29.7972 110.597 29.7912C110.724 29.7307 110.966 29.4768 110.785 29.3437C110.585 29.1986 110.265 29.3981 110.156 29.5735C110.15 29.5795 110.144 29.5916 110.138 29.5977C109.944 29.9121 110.398 29.8879 110.561 29.8093Z" fill="#FFFBE9"/>
<path d="M107.399 29.6338C107.647 29.7064 108.155 29.259 107.816 29.1622C107.568 29.0897 107.06 29.5371 107.399 29.6338Z" fill="#FFFBE9"/>
<path d="M120.622 33.2074C120.659 33.4009 120.834 33.3948 121.003 33.3283C121.215 33.292 121.747 33.0018 121.457 32.7841C121.191 32.5786 120.556 32.8144 120.622 33.2074Z" fill="#FFFBE9"/>
<path d="M120.247 34.7553C120.247 34.7553 120.241 34.7553 120.235 34.7493C120.241 34.7613 120.247 34.7613 120.253 34.7674C120.253 34.7674 120.253 34.7734 120.26 34.7734C120.235 34.7493 120.29 34.8097 120.29 34.8097C120.314 34.8279 120.35 34.8279 120.38 34.8158C120.399 34.8158 120.417 34.8218 120.435 34.8218C120.538 34.8279 120.913 34.6102 120.725 34.5013C120.574 34.4167 120.393 34.453 120.272 34.586C120.235 34.6404 120.211 34.7009 120.247 34.7553Z" fill="#FFFBE9"/>
<path d="M117.623 33.9692C117.66 33.9632 117.702 33.9632 117.738 33.9692C117.865 33.9753 118.325 33.7153 118.095 33.5702C118.071 33.5581 118.047 33.5399 118.028 33.5218C117.871 33.3404 117.575 33.4795 117.442 33.6246C117.267 33.8241 117.388 33.9934 117.623 33.9692Z" fill="#FFFBE9"/>
<path d="M118.76 31.7139C118.893 31.8348 119.268 31.599 119.322 31.4902C119.352 31.4358 119.383 31.3814 119.371 31.3148C119.346 31.1516 119.135 31.1455 119.008 31.2C118.875 31.2604 118.784 31.333 118.675 31.4297C118.548 31.5507 118.615 31.6958 118.76 31.7139Z" fill="#FFFBE9"/>
<path d="M119.008 33.165C119.074 33.3403 119.346 33.2617 119.461 33.1891C119.564 33.1226 119.709 33.0138 119.691 32.8747C119.691 32.8505 119.685 32.8264 119.679 32.8082C119.625 32.5664 119.25 32.7175 119.159 32.8505C119.141 32.8747 119.123 32.8929 119.105 32.9171C119.026 32.9775 118.965 33.0622 119.008 33.165Z" fill="#FFFBE9"/>
<path d="M118.349 35.0817C118.367 35.3115 118.73 35.1784 118.827 35.0998C118.929 35.0091 119.02 34.9064 119.05 34.7733C119.093 34.5557 118.827 34.6584 118.7 34.7491C118.536 34.7854 118.337 34.9064 118.349 35.0817Z" fill="#FFFBE9"/>
<path d="M116.317 33.0078C116.432 33.1167 116.589 33.0925 116.734 33.0864C116.807 33.0804 117.073 32.9716 116.982 32.8567C116.916 32.766 116.952 32.6813 116.898 32.5906C116.783 32.4032 116.468 32.5725 116.366 32.6813C116.36 32.6934 116.347 32.6995 116.341 32.7116C116.269 32.7962 116.226 32.9171 116.317 33.0078Z" fill="#FFFBE9"/>
<path d="M120.302 30.5106C120.235 30.7404 120.525 30.7404 120.671 30.6981C120.852 30.6376 121.027 30.5106 121.076 30.3172C121.136 30.0572 120.828 30.1055 120.64 30.2083C120.489 30.2506 120.338 30.3716 120.302 30.5106Z" fill="#FFFBE9"/>
<path d="M114.201 30.0571C114.207 30.0631 114.207 30.0692 114.213 30.0752C114.273 30.2082 114.467 30.1538 114.588 30.0873C114.763 30.0329 115.06 29.8454 114.866 29.6943C114.679 29.5492 114.4 29.6278 114.261 29.8092C114.207 29.8878 114.159 29.9664 114.201 30.0571Z" fill="#FFFBE9"/>
<path d="M112.399 33.6124C112.629 33.6789 113.107 33.2617 112.792 33.171C112.562 33.1045 112.085 33.5217 112.399 33.6124Z" fill="#FFFBE9"/>
<path d="M114.298 34.2232C114.334 34.2172 114.37 34.2111 114.407 34.2111C114.485 34.199 114.733 34.0599 114.642 33.9451C114.624 33.9269 114.612 33.9027 114.594 33.8846C114.352 33.5641 113.82 34.2897 114.298 34.2232Z" fill="#FFFBE9"/>
<path d="M110.422 34.5436C110.621 34.598 110.857 34.4831 110.984 34.338C111.087 34.2231 111.147 34.0115 110.948 33.951C110.748 33.8966 110.513 34.0115 110.386 34.1566C110.283 34.2775 110.228 34.4892 110.422 34.5436Z" fill="#FFFBE9"/>
</g>
<defs>
<filter id="filter0_d_1699_3132" x="0" y="0" width="182.091" height="196" filterUnits="userSpaceOnUse" color-interpolation-filters="sRGB">
<feFlood flood-opacity="0" result="BackgroundImageFix"/>
<feColorMatrix in="SourceAlpha" type="matrix" values="0 0 0 0 0 0 0 0 0 0 0 0 0 0 0 0 0 0 127 0" result="hardAlpha"/>
<feOffset dx="-2" dy="2"/>
<feGaussianBlur stdDeviation="4"/>
<feComposite in2="hardAlpha" operator="out"/>
<feColorMatrix type="matrix" values="0 0 0 0 0 0 0 0 0 0 0 0 0 0 0 0 0 0 0.16 0"/>
<feBlend mode="normal" in2="BackgroundImageFix" result="effect1_dropShadow_1699_3132"/>
<feBlend mode="normal" in="SourceGraphic" in2="effect1_dropShadow_1699_3132" result="shape"/>
</filter>
<clipPath id="clip0_1699_3132">
<rect width="139.552" height="155.455" fill="white" transform="translate(23.9092 18.2727)"/>
</clipPath>
</defs>
</svg>
