<svg width="25" height="25" viewBox="0 0 25 25" fill="none" xmlns="http://www.w3.org/2000/svg">
<path d="M24.6282 5.14305C23.7584 5.52847 22.824 5.78889 21.8417 5.90659C22.8552 5.30013 23.6135 4.34562 23.975 3.22118C23.0228 3.78679 21.9806 4.18492 20.8938 4.39826C20.1629 3.61791 19.1949 3.10068 18.14 2.92688C17.085 2.75308 16.0022 2.93242 15.0597 3.43707C14.1171 3.94171 13.3675 4.74343 12.9273 5.71774C12.487 6.69206 12.3808 7.78446 12.625 8.82535C10.6955 8.72847 8.80798 8.22696 7.08485 7.35337C5.36172 6.47978 3.84153 5.25364 2.62295 3.75451C2.20628 4.47326 1.9667 5.3066 1.9667 6.1941C1.96623 6.99305 2.16298 7.77976 2.53949 8.48444C2.916 9.18912 3.46062 9.78997 4.12503 10.2337C3.35449 10.2092 2.60094 10.001 1.92712 9.62639V9.68889C1.92704 10.8095 2.31465 11.8955 3.02418 12.7628C3.73371 13.6302 4.72146 14.2253 5.81982 14.4472C5.10502 14.6407 4.35559 14.6692 3.62816 14.5306C3.93805 15.4947 4.54169 16.3379 5.35458 16.9419C6.16747 17.546 7.1489 17.8807 8.16149 17.8993C6.44257 19.2487 4.31971 19.9806 2.13441 19.9774C1.7473 19.9775 1.36053 19.9549 0.976074 19.9097C3.19428 21.3359 5.77643 22.0929 8.41357 22.0899C17.3407 22.0899 22.2209 14.6962 22.2209 8.28368C22.2209 8.07535 22.2157 7.86493 22.2063 7.65659C23.1555 6.97011 23.9749 6.12003 24.6261 5.14618L24.6282 5.14305Z" fill="#333333"/>
</svg>
