<svg width="60" height="60" viewBox="0 0 60 60" fill="none" xmlns="http://www.w3.org/2000/svg">
<circle r="30" transform="matrix(-1 0 0 1 30 30)" fill="#AC557D"/>
<path d="M27.8312 39.7085C28.0491 39.7093 28.2644 39.6612 28.4612 39.5678C28.6581 39.4744 28.8315 39.3381 28.9687 39.1689L36.0125 30.4189C36.227 30.158 36.3442 29.8307 36.3442 29.4929C36.3442 29.1551 36.227 28.8278 36.0125 28.5669L28.7208 19.8169C28.4733 19.519 28.1176 19.3318 27.732 19.2962C27.3463 19.2607 26.9624 19.3797 26.6646 19.6273C26.3668 19.8748 26.1795 20.2305 26.1439 20.6161C26.1084 21.0018 26.2275 21.3857 26.475 21.6835L32.9937 29.5002L26.6937 37.3169C26.5154 37.5309 26.4021 37.7916 26.3673 38.068C26.3325 38.3444 26.3776 38.6251 26.4972 38.8767C26.6169 39.1283 26.8061 39.3403 27.0425 39.4877C27.279 39.6352 27.5526 39.7118 27.8312 39.7085Z" fill="#EEEEEE"/>
</svg>
