<svg width="55" height="56" viewBox="0 0 55 56" fill="none" xmlns="http://www.w3.org/2000/svg">
<circle cx="27.5" cy="28" r="26" stroke="#333333" stroke-width="3"/>
<path d="M30.1688 38.7085C29.9509 38.7093 29.7356 38.6612 29.5388 38.5678C29.3419 38.4744 29.1685 38.3381 29.0313 38.1689L21.9875 29.4189C21.773 29.158 21.6558 28.8307 21.6558 28.4929C21.6558 28.1551 21.773 27.8278 21.9875 27.5669L29.2792 18.8169C29.5267 18.519 29.8824 18.3318 30.268 18.2962C30.6537 18.2607 31.0376 18.3797 31.3354 18.6273C31.6332 18.8748 31.8205 19.2305 31.8561 19.6161C31.8916 20.0018 31.7725 20.3857 31.525 20.6835L25.0063 28.5002L31.3063 36.3169C31.4846 36.5309 31.5979 36.7916 31.6327 37.068C31.6675 37.3444 31.6224 37.6251 31.5028 37.8767C31.3831 38.1283 31.1939 38.3403 30.9575 38.4877C30.721 38.6352 30.4474 38.7118 30.1688 38.7085Z" fill="#333333"/>
</svg>
